<svg xmlns="http://www.w3.org/2000/svg" width="898.55" height="559.412" viewBox="0 0 898.55 559.412">
    <g id="Groupe_62" data-name="Groupe 62" transform="translate(-297.089 -1456.463)" opacity="0.079">
        <g id="Groupe_71" data-name="Groupe 71" transform="translate(-75.044 5.902) rotate(-8)">
            <path id="Tracé_42" data-name="Tracé 42" d="M363.2,1572.878c10.678,1.128,16.957,12.563,19.616,22.966s4,22.029,11.709,29.5c4.187,4.055,9.9,6.442,13.5,11.029s3.334,13.047-2.286,14.592c-1.984.546-4.1.056-6.148.21-5.949.448-10.46,7.328-8.5,12.962a8.625,8.625,0,0,1,6.361,8.851l-4.685,3.657c3.6-.435,5.261,5.134,2.991,7.968s-6.257,3.45-9.853,3.947-7.6,1.336-9.6,4.367c-1.352,2.05-1.452,4.644-1.685,7.088-.57,5.979-2.289,12.038-6.131,16.655s-10.1,7.513-15.964,6.2c-7.427-1.669-11.933-9.078-15.1-16a170.521,170.521,0,0,1-15.391-71.246c-4.856,4.5-13.807,3.376-17.161-2.33s.329-14.288,6.832-15.521c3.763-.714,7.563.752,11.378,1.09,11.574,1.026,21.561-8.38,27.226-18.524s8.823-21.735,15.949-30.912" fill="none" stroke="#142d52" stroke-linecap="round" stroke-linejoin="round" stroke-miterlimit="10" stroke-width="3"/>
            <path id="Tracé_43" data-name="Tracé 43" d="M380.792,1621.912a37.273,37.273,0,0,1-.7,8.143,18.779,18.779,0,0,0,1.121-7.7" fill="none" stroke="#142d52" stroke-linecap="round" stroke-linejoin="round" stroke-miterlimit="10" stroke-width="3"/>
            <path id="Tracé_44" data-name="Tracé 44" d="M315.245,1624.137a8.046,8.046,0,0,1,5.766,1.806,20.732,20.732,0,0,1-6.261,4.329" fill="none" stroke="#142d52" stroke-linecap="round" stroke-linejoin="round" stroke-miterlimit="10" stroke-width="3"/>
            <path id="Tracé_45" data-name="Tracé 45" d="M315.72,1639.176a193.745,193.745,0,0,1-10.136,29.257c-6.029,13.738-13.762,26.9-24.285,37.6s-24.014,18.816-38.809,21.3" fill="none" stroke="#142d52" stroke-linecap="round" stroke-linejoin="round" stroke-miterlimit="10" stroke-width="3"/>
            <path id="Tracé_46" data-name="Tracé 46" d="M367.181,1567.992c-19.886-3.8-42.167-5.01-58.657,6.737-8.445,6.016-14.421,14.822-20.03,23.543a95.9,95.9,0,0,0-7.961,14.188,106.9,106.9,0,0,0-4.916,16.35c-3.26,13.251-6.79,26.549-12.82,38.791s-14.775,23.484-26.523,30.426" fill="none" stroke="#142d52" stroke-linecap="round" stroke-linejoin="round" stroke-miterlimit="10" stroke-width="3"/>
            <path id="Tracé_47" data-name="Tracé 47" d="M382.106,1608.05a58.954,58.954,0,0,0-10.119-1.421,20,20,0,0,0-9.908,2.057c-.322.172-.673.406-.721.769-.064.486.443.835.885,1.048a25.535,25.535,0,0,0,19.992.793,2.592,2.592,0,0,0-2.139-2.035,14.086,14.086,0,0,0-3.148-.072,21.131,21.131,0,0,1-6.036-1.15c-2.146-.639-4.556-1.279-6.532-.228-.679.36-1.247,1.38-.608,1.808a1.367,1.367,0,0,0,.828.131c2.794-.118,5.546.614,8.32.974s5.777.3,8.123-1.226a2.64,2.64,0,0,1,.967-.482.731.731,0,0,1,.854.487" fill="none" stroke="#142d52" stroke-linecap="round" stroke-linejoin="round" stroke-miterlimit="10" stroke-width="3"/>
            <path id="Tracé_48" data-name="Tracé 48" d="M509.276,1562.875c-9.512-2.4-19.485,3.562-25.114,11.6s-7.981,17.828-10.846,27.211-6.648,19.013-14.17,25.31c-3.144,2.632-6.845,4.589-9.734,7.5s-4.9,7.26-3.489,11.111c1.619,4.432,6.758,6.224,10.575,9s6.1,9.438,1.933,11.649c-2.748-.913-5.707-1.624-8.521-.937s-5.375,3.178-5.227,6.071,3.953,5.155,6.2,3.323c-2.688.6-5.539,1.28-7.459,3.253s-2.29,5.694-.017,7.248c2.712,1.854,6.359-.627,9.619-.217,3.434.431,5.622,3.984,6.343,7.37s.511,6.968,1.677,10.227c2.877,8.04,13.358,11.085,21.547,8.664s14.555-8.727,20.551-14.807l23.283-23.607c4.35-4.41,8.8-8.975,11.159-14.7,4.913-11.947-.389-25.792,2.4-38.405,5.295,4.894,15.426,2.045,17.394-4.891s-5.159-14.681-12.235-13.3c-2.929.574-5.761,2.384-8.677,1.751a10.092,10.092,0,0,1-4.306-2.574,72.169,72.169,0,0,1-22.9-39.062" fill="none" stroke="#142d52" stroke-linecap="round" stroke-linejoin="round" stroke-miterlimit="10" stroke-width="3"/>
            <path id="Tracé_49" data-name="Tracé 49" d="M505.055,1561.178a66.774,66.774,0,0,1,27.05-12.393,20.158,20.158,0,0,1,8.691-.317c3.928.932,7.088,3.778,9.924,6.65a131.085,131.085,0,0,1,26.861,39.711c1.744,4.01,3.313,8.257,3.1,12.625-.271,5.623-3.513,10.77-7.691,14.543s-9.256,6.376-14.27,8.935" fill="none" stroke="#142d52" stroke-linecap="round" stroke-linejoin="round" stroke-miterlimit="10" stroke-width="3"/>
            <path id="Tracé_50" data-name="Tracé 50" d="M557.673,1618.095c-7.767,34.932,4.12,73.569,30.18,98.094,5.368,5.051,11.275,9.532,16.331,14.9,20.991,22.264,24.1,55.458,26.11,85.991q4.068,61.925,8.135,123.849" fill="none" stroke="#142d52" stroke-linecap="round" stroke-linejoin="round" stroke-miterlimit="10" stroke-width="3"/>
            <path id="Tracé_51" data-name="Tracé 51" d="M519.663,1678.383a72.277,72.277,0,0,1-6.386,48.87c-3.757,7.19-8.7,13.68-13.6,20.141-22.884,30.149-28.546,55.171-35.356,91.515-7.017,37.447-17.167,74.647-17.58,112.988" fill="none" stroke="#142d52" stroke-linecap="round" stroke-linejoin="round" stroke-miterlimit="10" stroke-width="3"/>
            <path id="Tracé_52" data-name="Tracé 52" d="M478.413,1617.359a48.928,48.928,0,0,0,22.008,4.343" fill="none" stroke="#142d52" stroke-linecap="round" stroke-miterlimit="10" stroke-width="3"/>
            <path id="Tracé_53" data-name="Tracé 53" d="M482.129,1602.6c7.046-.947,14.724,1.644,21.059-1.582.724-.368,1.491-.936,1.524-1.747.046-1.142-1.314-1.748-2.429-2a55.05,55.05,0,0,0-16.919-1.176,7.749,7.749,0,0,0-4.028,1.168,2.932,2.932,0,0,0-1,3.727c.76,1.177,2.392,1.325,3.793,1.351l14.088.263a5.006,5.006,0,0,0,2.78-.486,1.731,1.731,0,0,0,.621-2.44,2.469,2.469,0,0,0-1.373-.639,68.653,68.653,0,0,0-17.826-1.623c-.891.036-2.024.3-2.148,1.181-.151,1.078,1.322,1.536,2.41,1.565q8.874.239,17.749-.154" fill="none" stroke="#142d52" stroke-linecap="round" stroke-linejoin="round" stroke-miterlimit="10" stroke-width="3"/>
            <path id="Tracé_54" data-name="Tracé 54" d="M476.047,1625.458a14.224,14.224,0,0,0,1.194,6.4" fill="none" stroke="#142d52" stroke-linecap="round" stroke-miterlimit="10" stroke-width="3"/>
            <path id="Tracé_55" data-name="Tracé 55" d="M561.193,1735.332a734.656,734.656,0,0,0,9.9,219.522" fill="none" stroke="#142d52" stroke-linecap="round" stroke-miterlimit="10" stroke-width="3"/>
            <path id="Tracé_56" data-name="Tracé 56" d="M468.325,1811.323a237.112,237.112,0,0,1-140.193,31.727" fill="none" stroke="#142d52" stroke-linecap="round" stroke-miterlimit="10" stroke-width="3"/>
            <path id="Tracé_57" data-name="Tracé 57" d="M454.082,1883.867a390,390,0,0,1-145.167,8.393" fill="none" stroke="#142d52" stroke-linecap="round" stroke-miterlimit="10" stroke-width="3"/>
            <path id="Tracé_58" data-name="Tracé 58" d="M548.171,1607.231a9.2,9.2,0,0,0-5.634,1.825,1.229,1.229,0,0,0-.594.844,1.306,1.306,0,0,0,.407.836l2.192,2.609c.685.816,1.624,1.719,2.652,1.436l-2.262-3.065a1.3,1.3,0,0,1-.32-.686c-.024-.631.764-.905,1.368-1.091a5.921,5.921,0,0,0,3-2.123" fill="none" stroke="#142d52" stroke-linecap="round" stroke-linejoin="round" stroke-miterlimit="10" stroke-width="3"/>
            <path id="Tracé_59" data-name="Tracé 59" d="M557.024,1620.359c-5.861,2.6-9.527,8.648-11.283,14.815s-1.961,12.657-3,18.984a72.243,72.243,0,0,1-4.127,14.879,43.681,43.681,0,0,1-6.583,11.713c-2.478,3.017-5.836,5.691-9.736,5.866l-1.123-8.216a28.971,28.971,0,0,1,1.3,6.872,18.679,18.679,0,0,1,4.583-11.639c-.059,2.447-2.045,4.337-3.306,6.434s-1.39,5.518.919,6.326a30.956,30.956,0,0,1,7.6-17.835l-6.918,17.142c5.584-7.583,11.332-15.542,12.9-24.828q-4.32,7.47-8.356,15.1c.541.852,1.815-.038,2.355-.892l4.978-7.878-4.275,8.1c4.708-7.5,9.6-15.751,8.656-24.553l-2.872,9.709c-.261-4.971,1.906-9.721,2.677-14.638,1.176-7.5-.927-15.154-.443-22.733a41.061,41.061,0,0,1,8.322.908,9.081,9.081,0,0,1-7.486,2.5,7.157,7.157,0,0,0,5.625.417c-3.889,2.569-2.423,8.676-4.473,12.863a49.069,49.069,0,0,1,.185-15.85c1.637.293,1.54,3.274-.113,3.461" fill="none" stroke="#142d52" stroke-linecap="round" stroke-linejoin="round" stroke-miterlimit="10" stroke-width="3"/>
            <path id="Tracé_60" data-name="Tracé 60" d="M316.154,1641.588a3.588,3.588,0,0,1,4-2.464,33.852,33.852,0,0,1-3.967,4.3,8.746,8.746,0,0,1,2.944-1.43,183.635,183.635,0,0,0,9.243,55.594c.273.827.7,1.784,1.556,1.932,1.141-4.371-.7-8.894-2.293-13.122a129.017,129.017,0,0,1-8.205-42.478c3.365,20.953,5.731,38.905,9.1,59.858-1.839-5.015-1.061-7.456-1.264-12.794" fill="none" stroke="#142d52" stroke-linecap="round" stroke-linejoin="round" stroke-miterlimit="10" stroke-width="3"/>
            <path id="Tracé_61" data-name="Tracé 61" d="M365.242,1568.073a9.109,9.109,0,0,1-2.292,5.5l-1.092-5.011-7.123,10.568c-1.13,1.676-2.308,3.718-1.569,5.6a26.651,26.651,0,0,0,7.323-15.478q-14.163.715-28.268,2.248a48.3,48.3,0,0,0,20.415-3.086c-9.4-1.426-19.56-2.734-27.956,1.728l33.191,2.7c-14.721,3.617-27.1,13.624-41.488,18.38a36.057,36.057,0,0,0,30.878-16.5c-5.533-1.414-11.391.38-16.521,2.889s-9.935,5.759-15.361,7.539c5.121.787,10.358,1.488,15.457.57s10.117-3.72,12.451-8.345c-8.589-1.23-18.015-2.3-25.353,2.335-3.638,2.3-6.587,5.913-10.759,6.964a95.289,95.289,0,0,1,27.694-11.7c1.386-.34,3.14-1.15,2.9-2.556-.185-1.083-1.466-1.543-2.547-1.738a32.616,32.616,0,0,0-31.291,12.387c6.627-6.025,17.183-5.146,24.675-10.054-5.38,1.312-11.2.918-16.245,3.2-4.891,2.215-8.361,6.634-11.633,10.89l8.366-6.468a56.782,56.782,0,0,0-30.2,37.677,103.313,103.313,0,0,0,30.413-31.763,167.638,167.638,0,0,0-26.387,27.383c8.183-8.409,16.432-16.9,22.662-26.846a130.721,130.721,0,0,0-28.514,34.328q11.936-14.727,22.514-30.487c-1.909-.156-3.488,1.393-4.724,2.856a87.556,87.556,0,0,0-12.883,20.42l36.27-39.045c-5.6,5.94-11.233,11.916-15.744,18.721s-7.89,14.546-8.49,22.688c5.228-2.127,9.4-6.19,13.271-10.3,7.988-8.469,15.315-17.535,22.5-26.7a362.548,362.548,0,0,0-30.249,23.536,208.331,208.331,0,0,0,30.385-27.431q-15.123,11.3-29.568,23.476a261.362,261.362,0,0,1,20.216-21.207q-10.816,14.845-21.069,30.093c3.876.2,7.358-2.22,10.367-4.672,10.609-8.645,19.654-19.02,28.643-29.339a156.211,156.211,0,0,0-18.869,17.68c-5.672,6.275-11.447,13.4-19.684,15.328-.379-1.528.921-2.916,2.116-3.942a191.316,191.316,0,0,1,18.587-14.1c-9.467,8.393-19.148,17.055-24.949,28.3a51.647,51.647,0,0,0-5.722,23.4q1.906-24.477,5.29-48.811-3.27,18.992-7.589,37.782c-.963,4.192-1.993,8.444-4.153,12.163a73.457,73.457,0,0,1,9.476-36.735,286.41,286.41,0,0,1-18.794,46.1l18.512-42.393a147.9,147.9,0,0,0-15.178,35.528c2.563-12.1,5.168-24.329,10.476-35.5l-16.094,32.452q7.13-14.312,13.74-28.872a270.526,270.526,0,0,1,6.339,37.494c2.266-3.187,3.617-6.918,4.93-10.6q4.665-13.092,9.129-26.255a200.124,200.124,0,0,1-7.155,29.493c-1.774-10.088-1.21-20.422-.641-30.648q-5.319,16.278-9.668,32.854c8.7-11.2,9.68-26.582,16.521-39l-12.229,33.941c2.336-6.046,4.7-12.148,8.305-17.534s8.607-10.072,14.764-12.095a53.539,53.539,0,0,1-12.624,6.9,62.03,62.03,0,0,1,16.107-2.338c2.83-.035,5.744.111,8.4-.868,3.712-1.368,6.327-4.722,8.227-8.191a41.094,41.094,0,0,0,4.45-12.754,1.814,1.814,0,0,0-.118-1.326c-.472-.7-1.542-.442-2.315-.109l-23.74,10.2c-4.942,2.124-10.526,5.008-11.55,10.288,1.931.182,3.7-1,5.246-2.171,5.249-3.972,10.111-8.425,14.964-12.872l16.445-15.067-35.894,27.313c12.512-2,22.915-10.4,32.62-18.542L309.115,1613a112.1,112.1,0,0,0,27.827-12.214c-5.455,5.166-11.937,9.1-18.365,12.989l25.986-35.169a118.5,118.5,0,0,1-4.633,11.506c-1.31,2.819-3.81,6.084-6.767,5.126a261.631,261.631,0,0,1,20.3-21.878,9.471,9.471,0,0,1-1.516,4.886l-7.916,15.037a57.09,57.09,0,0,1,11.19-16.63,42.453,42.453,0,0,1-2.861,14.678,23.5,23.5,0,0,1,3.2-12.584l-18.378,30.849c-1.14,1.913-2.749,4.084-4.969,3.905l18.622-21.182a107.057,107.057,0,0,1-17.071,21.123c4.941-2.374,8.727-6.707,11.391-11.5s4.313-10.067,5.944-15.3a42.066,42.066,0,0,1-3.215,13.226c-.414.975-1.25,2.12-2.257,1.789-1.428-7.482.738-15.13,2.884-22.438a112.926,112.926,0,0,1-11.733,21.452,16.2,16.2,0,0,1,4.522-10.528,33.633,33.633,0,0,1-2.131,12.174c.81-1.632-1.245-3.479-3.053-3.256s-3.2,1.635-4.514,2.9a49.08,49.08,0,0,1-14.162,9.5c3.33.234,6.751.405,9.934-.6s6.123-3.442,6.786-6.714a52.6,52.6,0,0,1-17.67,12.074,44.811,44.811,0,0,0,13.493-1.7,11.835,11.835,0,0,0,5.513-2.866,12.459,12.459,0,0,0,2.619-5.738,73.067,73.067,0,0,0,2.1-15.568c-3.246.743-5.409,3.7-7.516,6.275a57.394,57.394,0,0,1-10.6,10.04,9.287,9.287,0,0,1-4.174,2.005,3.556,3.556,0,0,1-3.832-2.013c9.557-3.647,12.268-16.421,20.9-21.9-.372,4.519-4.908,7.348-8.93,9.442,5.024-9,14.5-15.632,16.746-25.689a43.716,43.716,0,0,0-17.544,4.974,6.1,6.1,0,0,0,7.876-.583,49.8,49.8,0,0,0-9.48,8.356c-12.189,12.852-23.635,26.385-35.045,39.934a99.607,99.607,0,0,0,15.686-36.3c.487-2.318,1.648-5.271,4.007-5.066a77.786,77.786,0,0,1-4.385,11.438c-12.7,29.523-16.757,62.6-32.671,90.525" fill="none" stroke="#142d52" stroke-linecap="round" stroke-linejoin="round" stroke-miterlimit="10" stroke-width="3"/>
            <path id="Tracé_62" data-name="Tracé 62" d="M289.783,1651.561c.367-.427-.211-1.122-.771-1.066a2.127,2.127,0,0,0-1.318.977c-4.94,6.353-8.8,13.465-12.632,20.54,6.826-8.691,13.761-17.573,17.551-27.955a12.916,12.916,0,0,0-8,15.152l7.478-18.505a284.949,284.949,0,0,0-11.5,45.36c3.709-14.582,13.056-27.351,16.011-42.1a72.975,72.975,0,0,0-4.666,12.469l-8.667,28.294c-.545-2.086.048-4.281.639-6.354l8.579-30.127c-6.787,14.48-9.733,30.411-12.617,46.141,8.311-10.026,16.975-20.859,18.378-33.806l-13.684,33.179c-1.48-10.389,2.658-20.666,6.712-30.346-.16,11.272-7.838,22.06-5.42,33.071q6.617-18.171,12.915-36.456-5.371,20.016-12.454,39.519c6.319-10.891,10.939-22.666,15.534-34.388l-12,26.963c2.288-2.718,3.7-6.049,5.059-9.331,4.673-11.259,9.185-22.584,13.7-33.909-3,10.942-6.03,21.962-11.072,32.126,3.259-14.206,8.919-27.73,14.553-41.173a38.509,38.509,0,0,1-12.752,13.71,33.413,33.413,0,0,1,5.341-16.274,9.046,9.046,0,0,0,1.172,3.237,3.081,3.081,0,0,0,2.941,1.444l-7.032-6.827a20.979,20.979,0,0,0,8.165,7.321l-5.27-6.022,3.982,6.212a38.5,38.5,0,0,0-11.762,12.767,17.5,17.5,0,0,0,6.542-7.821c.8,1.052.388,2.552-.062,3.8l-7.314,20.253,7.407-24.472c-.337-.644-1.317-.162-1.809.373a58.058,58.058,0,0,0-12.832,22.508l11.148-25.348a41.918,41.918,0,0,1-4.436,20.64,39.118,39.118,0,0,1,1.258-14.814,93.233,93.233,0,0,1-1.38,14.363c-.629,3.6-1.522,7.272-3.7,10.2l7.065-28.957c.547-2.244.623-5.381-1.592-6.034q-.9,3.654-1.771,7.314c.322-3.433-.911-6.79-1.749-10.135s-1.23-7.11.578-10.046a203.342,203.342,0,0,1-21.293,42.649l7.764-21.269a23.4,23.4,0,0,0,1.653-6.287l-3.4,4.773c-.985-2.205-.023-4.807,1.359-6.787s3.193-3.69,4.186-5.891a51.753,51.753,0,0,1-.765,17.7c1.026-3.1,4.722-4.5,7.991-4.489s6.493,1.007,9.758.851a14.146,14.146,0,0,0,11-6.318,79.858,79.858,0,0,0-8.936,21.219q4.277-10.451,8.784-20.805a101.2,101.2,0,0,1-2.413,12.563" fill="none" stroke="#142d52" stroke-linecap="round" stroke-linejoin="round" stroke-miterlimit="10" stroke-width="3"/>
            <path id="Tracé_63" data-name="Tracé 63" d="M380.247,1620.817a107.833,107.833,0,0,1-14.631,5.762c1.78.089,3.284,1.266,4.81,2.186a18.81,18.81,0,0,0,9.842,2.683" fill="none" stroke="#142d52" stroke-linecap="round" stroke-linejoin="round" stroke-miterlimit="10" stroke-width="3"/>
            <path id="Tracé_64" data-name="Tracé 64" d="M523.741,1584.951a16.255,16.255,0,0,0,11.526,7.742q-9.032-14.7-17.27-29.869c.412-.354,1.024.053,1.4.448,4.324,4.619,7.318,10.342,11.565,15.032s10.479,8.416,16.667,7.1c-7.072-9.144-10.757-20.911-19.411-28.575-.661.69-.2,1.821.292,2.642q7.674,12.805,16.521,24.858a136.48,136.48,0,0,1-29.814-23.55l11.063,26.575c-7.615-5.588-11.935-14.491-15.965-23.033a119.529,119.529,0,0,0,12.405,19.178c1.075,1.357,2.5,2.827,4.216,2.6a116.2,116.2,0,0,1-13.911-24.258c.127,1.55,1.4,2.726,2.586,3.727a254.063,254.063,0,0,0,22.979,17.209c1.191.791,3.281,1.271,3.634-.114a2.289,2.289,0,0,0-.776-1.9A117.216,117.216,0,0,0,521,1561.914q9.216,9.21,19.21,17.592l-9.887-26.374a104.426,104.426,0,0,0,19.641,24.237,75.4,75.4,0,0,0-8.55-17.308,103.544,103.544,0,0,0,19.7,16.6,299.355,299.355,0,0,0-18.635-26.6c5,4.261,10.021,8.552,14.179,13.633s7.445,11.051,8.423,17.544q-12.27-13.714-25.172-26.846c-.553.732.074,1.747.678,2.437l17.435,19.909c-8.93-6.094-13.758-17.866-24-21.332a131.047,131.047,0,0,0,29.519,45.534,302.21,302.21,0,0,0-12.824-33.421c5.951,11.3,13.661,21.553,21.335,31.756a55.529,55.529,0,0,1-4.911-18.625c-.245-2.952-.357-6.191-2.331-8.4a185.684,185.684,0,0,1,13,28.358c-5.734-8.49-11.581-17.107-19.486-23.626-1.175-.969-2.631-1.942-4.106-1.563a153.462,153.462,0,0,1,12.2,28.543c-3.513-.995-5.914-4.128-8.185-6.987-5.462-6.875-11.728-13.27-19.332-17.66-1.338-.772-2.983-1.489-4.366-.8l19.979,20.429a245.334,245.334,0,0,1-25.88-15.743,55.058,55.058,0,0,0,13.668,18.653c-5.31-.039-9.648-4.232-12.671-8.6s-5.494-9.333-9.8-12.439c1.9,5.339,5.934,9.61,9.993,13.566,2.783,2.712,5.828,5.465,9.625,6.29,2.943.639,5.991.039,8.992-.207s6.28-.045,8.6,1.869a74.492,74.492,0,0,1-22.171-10.916q9.344,4.3,18.778,8.392c1.484.644,3.4,1.219,4.559.1a1.607,1.607,0,0,0,.467-.788,2.681,2.681,0,0,0-.465-1.788,136.058,136.058,0,0,1-11.106-27.942c2.589,8.239,5.2,16.522,9.1,24.224a63.19,63.19,0,0,0-4.725-21.879l11.809,34.4-5.289-11.924,3.251,22.179c-.6-5.977-1.619-12.706-6.521-16.178,1.826,4.639,3.667,9.331,4.369,14.268a64.044,64.044,0,0,1,.457,8.148l.078,5.877a53.726,53.726,0,0,0,12.511-11.927,24.957,24.957,0,0,0-6.127,7.738c7.393-3.85,11.37-12.486,11.635-20.817.034-1.053-.47-2.52-1.49-2.259l-2.291,11.734c-2.415-4.6-3.227-9.855-4-15L568.3,1587.65c-1.039.179-1.27,1.55-1.255,2.6l.49,35.237c-4.475-7.029-1.912-16.386-4.216-24.394a103.662,103.662,0,0,0-2.049,23.06q2.328-6.306,4.287-12.739a26.836,26.836,0,0,1-4.078,11.931c4.567-1.972,7.665-6.456,9.146-11.206s1.564-9.8,1.623-14.779a9.082,9.082,0,0,0-.533-3.916c-1.357,1.415-1.45,3.584-1.446,5.544q.018,9.336.555,18.663c-1.554-6.358-3.017-13.458.242-19.134l2.97,11.933a40.087,40.087,0,0,0-1.52-11.316,10.825,10.825,0,0,0-2.71-5.156,12.482,12.482,0,0,0-4.744-2.342l-12.755-4.163,4.937,11.1c-4.54-3.1-8.234-7.269-12.382-10.88s-9.042-6.776-14.525-7.207a42.44,42.44,0,0,0,14.5,12.216,162.112,162.112,0,0,1-23.055-19.851c2.128,5.321,4.282,10.691,7.529,15.413s7.725,8.807,13.2,10.515l-8.291-17.917c-2.632-5.688-5.264-11.378-8.062-16.987a44.1,44.1,0,0,0-6.287-10.051,1.758,1.758,0,0,0-1.008-.676,1.874,1.874,0,0,0-1.332.62,38.663,38.663,0,0,1-8.78,5.587,13.851,13.851,0,0,0,9.428,1.976,82.024,82.024,0,0,0-8.529-3.8q7.575.175,15.155.041c2.749-.049,5.709-.2,7.868-1.9a77.9,77.9,0,0,0-15.337-1.548,66.97,66.97,0,0,1,23.175-3.622l-9.694.68a36.808,36.808,0,0,1,10.231,1.941c3.238,1.283,6.212,3.667,7.375,6.95l-16.274-9.081,13.821,19.08c-3.282-2.3-5.2-6.018-7.533-9.271s-5.691-6.348-9.7-6.251c-3.683.09-6.735,2.863-8.97,5.792a80.158,80.158,0,0,1,10.733,9.627c-2.346-4.43-4.75-8.937-8.343-12.433a131.7,131.7,0,0,0,12.74,14.354" fill="none" stroke="#142d52" stroke-linecap="round" stroke-linejoin="round" stroke-miterlimit="10" stroke-width="3"/>
            <path id="Tracé_65" data-name="Tracé 65" d="M629.27,1806.321c-8.666,11.136-21.109,15.994-35.029,18.306s-23.416,1-36.908-3.127" fill="none" stroke="#142d52" stroke-linecap="round" stroke-linejoin="round" stroke-miterlimit="10" stroke-width="3"/>
            <path id="Tracé_66" data-name="Tracé 66" d="M575.547,1704.979c-4.728.184-9.055,2.521-13.389,4.418a78.078,78.078,0,0,1-45.028,5.24" fill="none" stroke="#142d52" stroke-linecap="round" stroke-linejoin="round" stroke-miterlimit="10" stroke-width="3"/>
            <path id="Tracé_67" data-name="Tracé 67" d="M580.266,1711.138c-21.505,5.7-43.507,11.442-65.689,9.75" fill="none" stroke="#142d52" stroke-linecap="round" stroke-miterlimit="10" stroke-width="3"/>
            <path id="Tracé_68" data-name="Tracé 68" d="M585.829,1717.414c-12.052.759-24.284,1.554-35.674,5.566-3.542,1.248-6.979,2.8-10.589,3.833-8.72,2.5-17.99,1.86-27.037,1.2" fill="none" stroke="#142d52" stroke-linecap="round" stroke-linejoin="round" stroke-miterlimit="10" stroke-width="3"/>
            <path id="Tracé_69" data-name="Tracé 69" d="M506.514,1734.866c15.235,1.415,30.948,2.784,45.547-1.8,2.889-.907,5.71-2.041,8.652-2.757a63.047,63.047,0,0,1,11.3-1.341l25.881-1.5" fill="none" stroke="#142d52" stroke-linecap="round" stroke-linejoin="round" stroke-miterlimit="10" stroke-width="3"/>
            <path id="Tracé_70" data-name="Tracé 70" d="M606.7,1734.177a110.845,110.845,0,0,0-46.337,4.955" fill="none" stroke="#142d52" stroke-linecap="round" stroke-miterlimit="10" stroke-width="3"/>
            <path id="Tracé_71" data-name="Tracé 71" d="M560.318,1739.672c-8.237-2.432-16.646,2.4-25.032,4.251-6.6,1.459-13.445,1.058-20.189.649l-13.661-.829" fill="none" stroke="#142d52" stroke-linecap="round" stroke-linejoin="round" stroke-miterlimit="10" stroke-width="3"/>
            <path id="Tracé_72" data-name="Tracé 72" d="M498.147,1751.994c10.11,1.435,20.261,2.874,30.472,2.847s20.557-1.573,29.823-5.864" fill="none" stroke="#142d52" stroke-linecap="round" stroke-linejoin="round" stroke-miterlimit="10" stroke-width="3"/>
            <path id="Tracé_73" data-name="Tracé 73" d="M562.113,1748.409q23.079-2.862,46.239-5.009" fill="none" stroke="#142d52" stroke-linecap="round" stroke-miterlimit="10" stroke-width="3"/>
            <path id="Tracé_74" data-name="Tracé 74" d="M614.994,1748.539c-13.094.094-26.009,2.828-38.817,5.549-6.92,1.47-13.92,2.968-20.274,6.077-3.169,1.55-6.149,3.489-9.411,4.833-5.361,2.208-11.262,2.721-17.06,2.8a123.819,123.819,0,0,1-38.521-5.609" fill="none" stroke="#142d52" stroke-linecap="round" stroke-linejoin="round" stroke-miterlimit="10" stroke-width="3"/>
            <path id="Tracé_75" data-name="Tracé 75" d="M618.295,1758.763c-9.058-1.348-18.2,1.113-27.06,3.423q-24.949,6.5-50.232,11.629c-9.527,1.932-19.151,3.721-28.872,3.733a79.76,79.76,0,0,1-27.635-4.916" fill="none" stroke="#142d52" stroke-linecap="round" stroke-linejoin="round" stroke-miterlimit="10" stroke-width="3"/>
            <path id="Tracé_76" data-name="Tracé 76" d="M621.079,1764.75a112.052,112.052,0,0,1-52.935,14.815,83.73,83.73,0,0,0-11.259.584,79.867,79.867,0,0,0-10.264,2.742,128.193,128.193,0,0,1-68.529,1.31" fill="none" stroke="#142d52" stroke-linecap="round" stroke-linejoin="round" stroke-miterlimit="10" stroke-width="3"/>
            <path id="Tracé_77" data-name="Tracé 77" d="M623.643,1778.106,582.7,1791.274c-4.214,1.355-8.494,2.722-12.918,2.878-3.746.132-7.459-.611-11.189-.974-14.241-1.386-28.348,2.756-42.385,5.527s-29.317,4.026-42.006-2.584" fill="none" stroke="#142d52" stroke-linecap="round" stroke-linejoin="round" stroke-miterlimit="10" stroke-width="3"/>
            <path id="Tracé_78" data-name="Tracé 78" d="M625.407,1785.876c-8.963,2.518-16.136,9.3-24.834,12.625-7.347,2.807-15.383,3.005-23.221,3.647-17.817,1.458-35.344,5.366-53.1,7.417s-36.162,2.167-53.031-3.749" fill="none" stroke="#142d52" stroke-linecap="round" stroke-linejoin="round" stroke-miterlimit="10" stroke-width="3"/>
            <path id="Tracé_79" data-name="Tracé 79" d="M626.452,1795.539c-7.8-.615-14.364,5.269-21.282,8.927-7.8,4.122-16.7,5.542-25.422,6.824q-35.215,5.175-70.652,8.662c-6.6.649-13.233,1.254-19.841.745a59.212,59.212,0,0,1-19.714-5.035" fill="none" stroke="#142d52" stroke-linecap="round" stroke-linejoin="round" stroke-miterlimit="10" stroke-width="3"/>
            <path id="Tracé_80" data-name="Tracé 80" d="M627.976,1801.894c-6.815,5.833-11.16,8.69-19.643,11.606a140.711,140.711,0,0,1-17,4c-13.412,2.118-20.978,3.845-34,0" fill="none" stroke="#142d52" stroke-linecap="round" stroke-linejoin="round" stroke-miterlimit="10" stroke-width="3"/>
            <path id="Tracé_81" data-name="Tracé 81" d="M468.95,1824.47c13.485,5.3,28.43,6,42.813,4.244s28.357-5.881,42.254-9.986" fill="none" stroke="#142d52" stroke-linecap="round" stroke-linejoin="round" stroke-miterlimit="10" stroke-width="3"/>
            <path id="Tracé_82" data-name="Tracé 82" d="M464.051,1835.955c30.963,2.931,63.717,5.566,91.749-7.906" fill="none" stroke="#142d52" stroke-linecap="round" stroke-miterlimit="10" stroke-width="3"/>
            <path id="Tracé_83" data-name="Tracé 83" d="M463.566,1844.541l26.906,7.466c11.05,3.065,22.277,6.156,33.744,6.045s23.408-3.853,30.972-12.472" fill="none" stroke="#142d52" stroke-linecap="round" stroke-linejoin="round" stroke-miterlimit="10" stroke-width="3"/>
            <path id="Tracé_84" data-name="Tracé 84" d="M463.1,1838.463a230.567,230.567,0,0,0,48.366,10.04c8.678.846,17.724,1.149,25.809-2.113,6.452-2.6,11.868-7.314,18.266-10.044" fill="none" stroke="#142d52" stroke-linecap="round" stroke-linejoin="round" stroke-miterlimit="10" stroke-width="3"/>
            <path id="Tracé_85" data-name="Tracé 85" d="M462.1,1853.859a228.715,228.715,0,0,0,44.632,14.608c6.89,1.494,14.059,2.666,20.951,1.182a51.012,51.012,0,0,0,12.589-5.067q8.886-4.62,17.441-9.844" fill="none" stroke="#142d52" stroke-linecap="round" stroke-linejoin="round" stroke-miterlimit="10" stroke-width="3"/>
            <path id="Tracé_86" data-name="Tracé 86" d="M457.7,1864.407c6.2,4.393,13.8,6.251,21.187,8.019,12.944,3.1,25.98,6.207,39.274,6.835s27.012-1.369,38.593-7.928" fill="none" stroke="#142d52" stroke-linecap="round" stroke-linejoin="round" stroke-miterlimit="10" stroke-width="3"/>
            <path id="Tracé_87" data-name="Tracé 87" d="M454.823,1877.924l26.583,5.361c10.292,2.076,20.638,4.158,31.131,4.547a97.651,97.651,0,0,0,43-8.27" fill="none" stroke="#142d52" stroke-linecap="round" stroke-linejoin="round" stroke-miterlimit="10" stroke-width="3"/>
            <path id="Tracé_88" data-name="Tracé 88" d="M455.361,1885.988l27.971,8.184a175.518,175.518,0,0,0,19.94,5,88.413,88.413,0,0,0,54.6-8.424" fill="none" stroke="#142d52" stroke-linecap="round" stroke-linejoin="round" stroke-miterlimit="10" stroke-width="3"/>
            <path id="Tracé_89" data-name="Tracé 89" d="M453.416,1896.457c15.217,3.772,29.8,9.824,45.024,13.563s31.671,5.047,46.292-.614c4.969-1.924,9.648-4.622,14.781-6.054" fill="none" stroke="#142d52" stroke-linecap="round" stroke-linejoin="round" stroke-miterlimit="10" stroke-width="3"/>
            <path id="Tracé_90" data-name="Tracé 90" d="M451.117,1909.281a164.642,164.642,0,0,0,110.27,10.256" fill="none" stroke="#142d52" stroke-linecap="round" stroke-miterlimit="10" stroke-width="3"/>
            <path id="Tracé_91" data-name="Tracé 91" d="M448.9,1916.712a450.642,450.642,0,0,0,68.291,16.464,131.6,131.6,0,0,0,22.371,2.091,77.178,77.178,0,0,0,24.7-4.4" fill="none" stroke="#142d52" stroke-linecap="round" stroke-linejoin="round" stroke-miterlimit="10" stroke-width="3"/>
            <path id="Tracé_92" data-name="Tracé 92" d="M453.4,1901.062a146.086,146.086,0,0,0,110.584,10.414" fill="none" stroke="#142d52" stroke-linecap="round" stroke-miterlimit="10" stroke-width="3"/>
            <path id="Tracé_93" data-name="Tracé 93" d="M450.192,1924.942c7.715,1.841,15.158,4.652,22.691,7.136,29.849,9.843,62.587,14.505,92.634,5.286" fill="none" stroke="#142d52" stroke-linecap="round" stroke-linejoin="round" stroke-miterlimit="10" stroke-width="3"/>
            <path id="Tracé_94" data-name="Tracé 94" d="M447.009,1934.565c16.954,6.338,34.48,11.567,52.512,13.142,22.424,1.958,44.912-1.779,67.111-5.5" fill="none" stroke="#142d52" stroke-linecap="round" stroke-linejoin="round" stroke-miterlimit="10" stroke-width="3"/>
            <path id="Tracé_95" data-name="Tracé 95" d="M447.917,1944.454c9.824,4.377,19.8,8.8,30.449,10.34,8.909,1.288,17.972.507,26.94-.276l63.728-5.563" fill="none" stroke="#142d52" stroke-linecap="round" stroke-linejoin="round" stroke-miterlimit="10" stroke-width="3"/>
            <path id="Tracé_96" data-name="Tracé 96" d="M467.51,1813.115a414.352,414.352,0,0,0-19.121,62.726c-.625,2.837-1.214,5.829-.361,8.606a299.782,299.782,0,0,0,17.084-65.61c-3.79,22.066-16.616,42.924-14.267,65.19,6.968-18.505,6.665-39.117,13.55-57.653l-4.852,29.988c-1.406,8.693-2.856,17.526-6.689,25.453" fill="none" stroke="#142d52" stroke-linecap="round" stroke-linejoin="round" stroke-miterlimit="10" stroke-width="3"/>
            <path id="Tracé_97" data-name="Tracé 97" d="M330.954,1697.263c-14.848,33.1-15.8,70.518-16.51,106.792-14.6-20.79-14.814-48.467-25.97-71.289" fill="none" stroke="#142d52" stroke-linecap="round" stroke-linejoin="round" stroke-miterlimit="10" stroke-width="3"/>
            <path id="Tracé_98" data-name="Tracé 98" d="M317.671,1757.134l6.433,48.106c1.71,12.789,3.422,25.74,1.907,38.553-2.5,21.143-13.639,40.693-14.974,61.941-1.056,16.815,4.126,33.6,2.735,50.389" fill="none" stroke="#142d52" stroke-linecap="round" stroke-linejoin="round" stroke-miterlimit="10" stroke-width="3"/>
            <path id="Tracé_99" data-name="Tracé 99" d="M287.766,1739.585a236.5,236.5,0,0,1,15.851,54.379c-4.2-10.792-8.408-21.586-12.438-32.444-1.8-4.839-3.581-9.813-3.595-14.975,7.285,23.247,13.847,47.167,13.3,71.522a108.428,108.428,0,0,0-6.507-34.181c-3.1-8.511-7.358-17.265-5.808-26.19a529.152,529.152,0,0,1,5.643,56.887" fill="none" stroke="#142d52" stroke-linecap="round" stroke-linejoin="round" stroke-miterlimit="10" stroke-width="3"/>
            <path id="Tracé_100" data-name="Tracé 100" d="M296.8,1828.029a141.727,141.727,0,0,1,1.413,31.045,564.424,564.424,0,0,1-13.5-73.725l4.093,53.095a502.72,502.72,0,0,0,1.225-74.634q-.642,19.135-.264,38.286c.152,7.755.5,15.806,4.076,22.692q1.578-44.1-1.158-88.206c-.209-3.362-.788-7.3-3.758-8.886a62.364,62.364,0,0,0,.876,31.051l-2.361-33.3c3.07,49.2,3.946,98.693-1.447,147.692l8.54-52.175c.01,49.52-5.788,98.836-11.578,148.016l6.947-104.329c.679,29.4,1.353,58.9-1.892,88.126l-.673-67.429a357.85,357.85,0,0,0,4.959,56.531,149.883,149.883,0,0,0,.83-40.624l1.216,52.5q-3.064-10.917-5.314-22.04a99.851,99.851,0,0,0,2.059,24.63l3.056-23.4a43.324,43.324,0,0,0,3.67,18.846,50.719,50.719,0,0,0,.878-18.05l6.256,22.475a92.267,92.267,0,0,0-5.229-19.482,14.226,14.226,0,0,0,1.444,15.1q1.8-9.289,3.052-18.674l3.267,24.914q1.716-9.06,3.918-18.019l2.064,13.232-10.424-44.08q-.723,15.769-2.11,31.5l-9.075-64.942c.767,18.368,1.534,36.783.254,55.123,1.87-3.952,1.933-8.482,2.041-12.853a356.042,356.042,0,0,1,6.221-57.975l3.066,75.829q2-26.322,6.106-52.427l-2.891,27.778c-.812,7.8-1.5,16.226,2.5,22.974l-.475-26.356,1.12,26.131a178.065,178.065,0,0,1,10.255-78.367A178.924,178.924,0,0,1,311,1888.242c1.083-18.609-1.329-37.248-4.613-55.6a256.7,256.7,0,0,1-5.874,81.153c-2.873-2.135-2.571-6.451-1.961-9.978q5.038-29.1,11.612-57.9L298.638,1932c-2.5-3.156-2.506-7.545-2.4-11.568l1.352-51.176,2.993,36.1q-3.341-35-4.3-70.176-3.715,32.244-9.137,64.261a526.83,526.83,0,0,1-.909-66.428c3.458,14.867,6.921,30.4,3.306,45.227a139.48,139.48,0,0,1,.533-35.2q3.877,19.419,8.719,38.629a399.807,399.807,0,0,0-1.368-84.855,243.88,243.88,0,0,1,.164,38l-7.6-22.1,4.627,10.753.322-25.128c5.044,25.31,10.105,50.767,10.807,76.566l.412-58.872c.059-8.33.03-17.042-3.811-24.433a203.666,203.666,0,0,1,.585,39.539,223.487,223.487,0,0,1-3.786-34.792,46.478,46.478,0,0,0,10.357,12.988c1.021-1.473.253-3.474-.535-5.084q-4.287-8.757-8.573-17.515a149.3,149.3,0,0,1,14.791,27.081,30.489,30.489,0,0,0-3.4-13.64,16.287,16.287,0,0,0,4.245,8.016q2.289-22.543,3.8-45.156c-1.279,22.553-2.558,45.156-1.489,67.72q.447-18.3,1.682-36.565l5.172,49.2-.5-14.762-7.826,42.364.25-51.437a215.218,215.218,0,0,0-7.346,55.171l1.274-66.291-2.932,34.62-3.568-25.666a94.014,94.014,0,0,0,5.026,29.253,262.233,262.233,0,0,0,3.154-36.21l-.29,71.717a144.931,144.931,0,0,1,3.9-51.542q-.753,15.183-.407,30.394l5.774-42.956a294.069,294.069,0,0,1-5.226,52.867c-.809,4.23-1.947,8.825-5.406,11.391a33.063,33.063,0,0,0-3.946-12.127l-.24,24.254-2.5-47.654a82.19,82.19,0,0,0-.077,22.749,117.215,117.215,0,0,0-3.854-19.281L294.9,1879.86c-.409,2.18-1.2,4.78-3.353,5.3a126.211,126.211,0,0,1,12.959-66.168,22.97,22.97,0,0,1-1.254,19c-.123-7.975-3.641-15.436-6.467-22.894a140.042,140.042,0,0,1-8.73-39.833c.626,17.082,1.247,34.256-.924,51.211" fill="none" stroke="#142d52" stroke-linecap="round" stroke-linejoin="round" stroke-miterlimit="10" stroke-width="3"/>
            <path id="Tracé_101" data-name="Tracé 101" d="M307.051,1928.325a265,265,0,0,0,5.249,27.251A67.985,67.985,0,0,0,301.065,1929l5.621,26.876a142.086,142.086,0,0,1-15.907-30.161,207.223,207.223,0,0,1,5.462,33.3,136.169,136.169,0,0,0-.209-31.214,62.2,62.2,0,0,0,6.879,27.072c-1.3-16.531-2.6-33.237-.109-49.631,1.649-10.844,4.942-21.428,5.911-32.354,1.239-13.979-1.363-28.112.154-42.064.994-9.146,3.625-19-.738-27.1q.7,12.646,1.39,25.292" fill="none" stroke="#142d52" stroke-linecap="round" stroke-linejoin="round" stroke-miterlimit="10" stroke-width="3"/>
            <path id="Tracé_102" data-name="Tracé 102" d="M249.465,1537.728" fill="none" stroke="#142d52" stroke-linecap="round" stroke-miterlimit="10" stroke-width="3"/>
            <path id="Tracé_103" data-name="Tracé 103" d="M438.023,1558.423c-.144-3.087-.319-6.292-1.78-9.016s-4.607-4.807-7.594-4.017c-3.738.989-5.151,5.621-4.962,9.483.311,6.331,3.14,12.243,6.169,17.811a3.281,3.281,0,0,0,.893,1.171,3.2,3.2,0,0,0,2.74.068c10.678-3.174,19.974-12.6,20.407-23.736.05-1.275-.179-2.816-1.345-3.333-.981-.435-2.1.1-3.032.627-4.794,2.69-9.926,5.755-11.952,10.864" fill="none" stroke="#142d52" stroke-linecap="round" stroke-linejoin="round" stroke-miterlimit="10" stroke-width="3"/>
            <path id="Tracé_104" data-name="Tracé 104" d="M419.746,1596.181c.62-5.173,7.694-8.441,6.851-13.583a4.878,4.878,0,1,0-8.764,3.653,10.047,10.047,0,0,0-5.132-3.01c-1.99-.31-4.312.719-4.825,2.667-.646,2.456,1.7,4.649,3.964,5.8s4.945,2.176,5.893,4.532" fill="none" stroke="#142d52" stroke-linecap="round" stroke-linejoin="round" stroke-miterlimit="10" stroke-width="3"/>
            <path id="Tracé_149" data-name="Tracé 149" d="M646.563,2024.167" fill="none" stroke="#142d52" stroke-linecap="round" stroke-miterlimit="10" stroke-width="3"/>
            <path id="Tracé_190" data-name="Tracé 190" d="M242.085,1695.072" fill="none" stroke="#142d52" stroke-linecap="round" stroke-miterlimit="10" stroke-width="3"/>
            <path id="Tracé_191" data-name="Tracé 191" d="M272,1669.339a47.121,47.121,0,0,1-20.907,26.554c6.727-6.452,13.618-13.135,17.383-21.662a71.625,71.625,0,0,0,4.034-14.075l4.44-20.742c1.411-6.592,2.831-13.288,2.377-20.014.549,8.316.867,16.935-2.166,24.7-2.052,5.255-5.526,9.806-8.436,14.64-8.495,14.112-13.266,31.97-27.563,40.148,10.254-1.684,18.036-10.3,22.913-19.473s7.73-19.361,13.054-28.286c1.618-2.714,3.527-5.9,2.293-8.811a228.52,228.52,0,0,1-34.738,56.965c-1.383,1.662-3.389,3.478-5.413,2.719-.829-.31-1.5-1.029-2.373-1.154s-1.837,1.055-1.124,1.579a114.832,114.832,0,0,0,47.639-48.68c-3.2,15.686-15.139,28.26-28.428,37.188-5.734,3.852-12.353,7.934-13.841,14.678l27.223-18.165c6.731-4.492,13.94-9.615,16.163-17.4l-34.5,26.921c-4.035,3.149-8.121,6.349-11.185,10.448a176.5,176.5,0,0,0,48.445-29.924c-.627,4.574-4.622,7.833-8.359,10.544a430.136,430.136,0,0,1-46.546,29.408q25.1-16.848,51.141-32.231c-.63,5.625-5.89,9.4-10.666,12.44L241.981,1717.3c5.414-.448,10.168-3.614,14.651-6.681l28.7-19.634c.946,2.389-1.435,4.7-3.538,6.173l-37.224,26.131c1.6,1.828,4.565.425,6.5-1.045l32.423-24.649a82.534,82.534,0,0,1-34.053,24.916,74.434,74.434,0,0,0,35.624-25.471c-4.514,2.322-6.585,7.511-9.663,11.548-7.094,9.3-19.511,12.377-30.945,14.851-4.152.9-8.664,1.76-12.5-.064q17.944-5.5,35.379-12.506l-32.453,6.084,20.279-17.461a46.9,46.9,0,0,0-25.541,8.651l17.145-13.51c-4.5-.634-9.169-.87-13.493.513s-8.264,4.655-9.4,9.051a331.058,331.058,0,0,0,46.95-30.625c3.352-2.616,6.884-5.675,7.593-9.868-4.229-1.051-8.185,2.23-11.377,5.2a290.219,290.219,0,0,1-40.463,31.432l19.621,4.841-31.767,2.523,19.4-.178c-2.061,1.809-3.774,5.791-1.152,6.6a54.934,54.934,0,0,0-2.87-8.039c1.184,2.681,2.48,5.464,4.806,7.246s6,2.161,8.021.034.482-6.623-2.434-6.326c-3.033.309-3.723,4.431-3.306,7.452a28.911,28.911,0,0,0-2.91-11.111,19.316,19.316,0,0,0-1.682,8.821l-4.568-11.439a4.1,4.1,0,0,0-2-2.587c-1.055-.389-2.5.8-1.87,1.731a12.88,12.88,0,0,0,8.028-2.486c-13.874,1.85-28.046,1.384-41.742,4.267s-27.5,9.932-33.845,22.406c-3.567,7.012-4.1,16.393,1.335,22.077a19.606,19.606,0,0,0,9.008,4.943c14.792,4.149,30.319-1.912,44.481-7.867,12.942-5.442,26-10.946,37.48-19.025" fill="none" stroke="#142d52" stroke-linecap="round" stroke-linejoin="round" stroke-miterlimit="10" stroke-width="3"/>
            <path id="Tracé_192" data-name="Tracé 192" d="M286.647,1726.1c-8.533-4.763-18.976.562-27.243,5.773-26.52,16.718-54.167,34.608-69.126,62.158a92.2,92.2,0,0,0-9.268,25.377c-3.147,15.3-2.353,31.092-2.468,46.713-.267,36.508-5.566,72.77-10.854,108.893" fill="none" stroke="#142d52" stroke-linecap="round" stroke-linejoin="round" stroke-miterlimit="10" stroke-width="3"/>
            <path id="Tracé_193" data-name="Tracé 193" d="M267.974,1726.762c3.907-1.024,8.152.8,10.916,3.746s4.277,6.842,5.36,10.733c3.547,12.745,3.117,26.213,2.659,39.434l-.473,13.661c-3.37-8.442-1.541-17.927-.384-26.944a170.051,170.051,0,0,0,1.191-29.65,14.521,14.521,0,0,0-1.173-5.958,5.238,5.238,0,0,0-4.859-3.089,36.967,36.967,0,0,1,5.613,13.461l-5.248-12.664a5.645,5.645,0,0,0-1.2-2.032c-1.972-1.857-5.222-.142-7.874-.7,6.024-.253,13.125,0,16.563,4.95" fill="none" stroke="#142d52" stroke-linecap="round" stroke-linejoin="round" stroke-miterlimit="10" stroke-width="3"/>
            <path id="Tracé_194" data-name="Tracé 194" d="M285.829,1838.632v-28.125" fill="none" stroke="#142d52" stroke-linecap="round" stroke-miterlimit="10" stroke-width="3"/>
            <path id="Tracé_195" data-name="Tracé 195" d="M285.859,1809.964a107.369,107.369,0,0,1,3.468-33.464" fill="none" stroke="#142d52" stroke-linecap="round" stroke-miterlimit="10" stroke-width="3"/>
            <path id="Tracé_196" data-name="Tracé 196" d="M282.969,1703.595c-16.038,20.447-36.923,36.46-57.57,52.24-14.976,11.446-24.881,25.705-43.066,30.665-11,3-26.694-.412-31.134-3.619-4.986-3.6-10.059-8.256-10.605-14.383a17.166,17.166,0,0,1,2.57-9.78,30.742,30.742,0,0,1,21.384-14.977" fill="none" stroke="#142d52" stroke-linecap="round" stroke-linejoin="round" stroke-miterlimit="10" stroke-width="3"/>
            <path id="Tracé_197" data-name="Tracé 197" d="M185.8,1743.594" fill="none" stroke="#142d52" stroke-linecap="round" stroke-miterlimit="10" stroke-width="3"/>
            <path id="Tracé_198" data-name="Tracé 198" d="M220.915,1719.346c-9.907,1.123-19.824,2.68-29.275,5.857s-18.469,8.049-25.494,15.125c5.1.878,10.3-.534,15.222-2.126,20.857-6.743,40.491-16.924,58.893-28.836a236.128,236.128,0,0,0-51.022,22.312c-4.521,2.652-9.272,5.845-10.907,10.826,1.769.88,3.869,0,5.64-.88l56-27.712q-20.741,9.209-40.884,19.689c-12.572,6.541-25.066,13.524-35.673,22.922,8.154-1.35,15.507-5.6,22.513-9.983,9.087-5.688,17.943-11.736,26.8-17.782l25.876-17.673c-3.433.857-6.371,3.018-9.2,5.146-23.33,17.557-46.168,36.292-72.611,48.673,25.855-10.23,50.323-23.617,74.713-36.967,3.3-1.806,6.6-3.616,9.711-5.734-3.177-1.513-6.893.127-9.989,1.8a282.68,282.68,0,0,0-57.063,40.732l61.037-48.479c4.475-3.555,9.048-7.165,14.4-9.157-19.676,14.286-42.484,24.091-61.054,39.787,12.376,2.549,24.834-3.181,35.925-9.236,8.566-4.676,17.046-9.7,24.212-16.324a178.514,178.514,0,0,0-54.35,34.243c5.838.343,11.53-1.737,16.908-4.035a187.927,187.927,0,0,0,47.266-29.128,7.249,7.249,0,0,0-4.065,1.645l-42.73,28.687a257.808,257.808,0,0,0,23.991-12.044c10.443-5.706,21.152-11.627,28.737-20.8-13.143,9.371-27.714,17.321-37.923,29.825a100.426,100.426,0,0,0,23.539-16.865l-36.735,19.726c-7.919,4.252-16.013,8.64-21.978,15.363a63.212,63.212,0,0,0,46.734-24.427,134.462,134.462,0,0,0-37.982,23.089,198.906,198.906,0,0,0,18.234-11.1c3.561-2.438,7.113-5.063,9.572-8.61l-19.738,18.343A68.432,68.432,0,0,1,228,1753.35a95.026,95.026,0,0,0-25.562,14.419c-3.358,2.655-6.593,5.573-10.485,7.355-6.118,2.8-13.256,2.483-19.778.832a5.66,5.66,0,0,1-2.722-1.276c-1.279-1.293-1.111-3.418-.571-5.154,1.347-4.339,4.365-7.942,7.487-11.243a126.064,126.064,0,0,1,27.882-22.147,128.474,128.474,0,0,0-28.693,1.568,26.638,26.638,0,0,0-8.713,2.634,14.954,14.954,0,0,0-6.764,8.143,22.96,22.96,0,0,0,7.683-8.48l-20.236,17.862c2.4-5.494,10.836-6.017,13.47-11.4a33.46,33.46,0,0,0-14.014,7.424c-2.879,2.565-5.4,5.857-5.831,9.689s1.9,8.139,5.694,8.835c-.778-5.195-1.265-11.3,2.555-14.9,1.853-1.747,4.386-2.526,6.794-3.353a92.809,92.809,0,0,0,25.845-13.764c-5.026-.477-10.014,1.247-14.524,3.514a60.591,60.591,0,0,0-20.437,16.751c2.288.562,4.627-.525,6.711-1.623a177.588,177.588,0,0,0,36.631-25.673q-24.213,13.685-47.377,29.121c-.663.442-1.409,1.055-1.311,1.846.1.82,1.037,1.225,1.841,1.416,6.425,1.533,13.285-.485,18.867-4.016s10.11-8.466,14.568-13.34q-16.221,8.726-32.075,18.112c5.853,4.07,14,3.4,20.362.182s11.337-8.57,16.166-13.813a214.179,214.179,0,0,0-39.165,15c-1.657.828-3.509,1.964-3.71,3.805,6.795,1.388,13.878,1.992,20.645.473s13.218-5.371,16.772-11.326c-5.555,1.228-11.231,2.5-16.067,5.5s-8.758,8.1-8.782,13.785c4.457,2.416,9.777-.777,13.819-3.838l23.007-17.425a165.236,165.236,0,0,0-30.238,17.13A360.051,360.051,0,0,1,205.8,1741.2c.917-.554,2.022-1.122,3.008-.7-6.656,12.044-19.96,18.552-29.994,27.969a287.854,287.854,0,0,1,38.927-27.367c-4.559,5.588-10.355,10.013-16.092,14.383l-25.5,19.417c3.149-.138,6-1.8,8.7-3.43q12.994-7.824,25.872-15.842a155.123,155.123,0,0,1-33.193,29.438c12.5-3.066,23.085-11.291,32.438-20.139-8.266,4.572-15.372,11.185-24.056,14.9-15.326,6.555-34.586,2.384-45.826-9.924-.553,5.167,3.077,10.083,7.666,12.521s9.957,2.867,15.152,2.96,10.478-.092,15.49,1.275a131.512,131.512,0,0,1-23.334-4.794c-.681-.2-1.5-1.009-.925-1.434a211.143,211.143,0,0,0,40.483-5.22l-22.917.059a133.937,133.937,0,0,1-14.712-.5,13.268,13.268,0,0,1-6.552-2.03c17.878,2.085,36.478,2.416,53.344-3.872a79.577,79.577,0,0,0-25.028,2.445q11.376-6.5,22.341-13.692c2.334-1.53,4.742-3.179,6.069-5.634a33.4,33.4,0,0,0-29.651,13.495c9.123-4.145,16.485-11.262,24.246-17.6s16.6-12.192,26.591-12.964a121.105,121.105,0,0,1-16.254,17.2c10.323-11.272,23.039-20.059,35.933-28.268l-24.835,21.948a312.052,312.052,0,0,0,31.631-45.737c-4.021-.435-8.058.521-11.934,1.677-17.566,5.238-33.664,14.682-51.277,19.761l35.191-11.861a75.914,75.914,0,0,0,12.707-5.155c-23.668-7.023-49.774-3.425-72.044,7.232-3.772,1.8-7.527,3.863-10.357,6.942s-4.629,7.367-3.823,11.471c.412,2.1,1.462,4.016,2.012,6.082a13.365,13.365,0,0,1-2.8,12.023,174.014,174.014,0,0,0,17.462-21.514,42.472,42.472,0,0,0-10.407,20.609c6.45-9.446,16.224-16.008,25.754-22.333,4.422-2.935,8.9-5.9,13.907-7.666,11.743-4.146,25.386-1.377,36.5-7a301.552,301.552,0,0,0-46.4,4.747c-8.525,1.546-17.379,3.654-23.887,9.372a26.212,26.212,0,0,0-7.407,11c-2.029-2.739-1.531-6.736.3-9.61s4.735-4.87,7.592-6.729c11.494-7.479,24.322-14.285,38.03-13.915,8.875.24,17.447,3.5,26.317,3.886-8.982-5.459-20-6.957-30.423-5.568s-20.308,5.5-29.51,10.575c-4.649,2.565-9.466,5.754-11.266,10.75-.4,1.1-.5,2.588.507,3.181a2.737,2.737,0,0,0,2.027.059c8.989-2.2,16.281-8.726,24.891-12.117a75.439,75.439,0,0,1,13.9-3.522l20.221-3.779c-7.4-3.524-16.331-2.519-23.784.882s-13.69,8.954-19.61,14.617c-3.709,3.547-7.625,7.878-7.227,12.995l22.065-20.2c2.982-2.73,6.06-5.521,9.836-6.965,4.944-1.892,10.448-1.249,15.7-.579" fill="none" stroke="#142d52" stroke-linecap="round" stroke-linejoin="round" stroke-miterlimit="10" stroke-width="3"/>
            <path id="Tracé_199" data-name="Tracé 199" d="M185.283,1710.723a135.54,135.54,0,0,0,16.74-.325c-7.321-.763-15.389-1.341-21.361,2.961-2.938,2.115-5.083,5.253-8.219,7.063a261.372,261.372,0,0,0,24.673-9.573c-1.778-1.954-4.952-1.275-7.445-.4a224.566,224.566,0,0,0-30.027,13.09,8.834,8.834,0,0,0-3.12,2.3,62.845,62.845,0,0,0,16.224-4.691c-1.036-.815-2.543-.174-3.664.52a46.378,46.378,0,0,0-14.407,13.556,5.033,5.033,0,0,0-1.092,2.87c.043,1.041.957,2.1,1.98,1.913a2.8,2.8,0,0,0,1.583-1.326l14.411-20.2c-4.575,8.834-13.384,15.041-17.327,24.175,5.811-9.444,12-19.265,21.581-24.843,1.3.946.527,2.989-.352,4.339L163.6,1740.37c2.112-.287,3.791-1.853,5.316-3.341l22.458-21.909c-10.239,5.816-20.644,11.76-28.717,20.333,18.1-5.223,33.687-16.7,50.992-24.132l-44.328,23.885a76.268,76.268,0,0,0,39.763-13.81c-3.782-.6-7.635.3-11.3,1.418a95.536,95.536,0,0,0-23.11,10.588c16.946-10.086,37.266-13.41,54.119-23.65-13.734,9.594-30.044,14.808-44.408,23.43a340.574,340.574,0,0,1,51.435-19.686c-5.716,3.392-12.1,5.465-18.211,8.072s-12.165,5.905-16.32,11.092l11.924-5.137c10.816-4.66,21.669-9.333,33-12.55-14.757,4.453-29.75,9.015-42.616,17.505a9.117,9.117,0,0,0-3.658,3.675,174.3,174.3,0,0,0,19.242-8.126L242,1717.294a218.779,218.779,0,0,0-50.633,31.46l10.615-19.317a97.933,97.933,0,0,0-16.3,13.252c-2.966,2.995-5.919,6.3-9.915,7.646a136.531,136.531,0,0,0,28.15-20.19c-1.616-.811-3.537.014-5.15.832L185,1737.959l22.756-15.942-38.77,8.9a26.243,26.243,0,0,0,20.684-3.4c-3.044.524-5.751,2.211-8.289,3.973a44.751,44.751,0,0,0-9.52,8.382c-6.242,7.737-8.068,18.265-14.046,26.206a6.066,6.066,0,0,1-1.622,1.623,6.757,6.757,0,0,1-2.705.733l-10.553,1.324,15.453,7.828a102.711,102.711,0,0,1-13.452-1.4,16.49,16.49,0,0,0,7.052,3.744q-2.023-2.151-4.031-4.318c-1.848-1.995-3.756-4.125-4.369-6.774-1.04-4.5,1.906-8.858,4.693-12.541l-8.954,8.239a5.721,5.721,0,0,0-1.328,1.556,4.7,4.7,0,0,0-.319,2.562,13.358,13.358,0,0,0,13.738,11.586,2.165,2.165,0,0,0,1.2-.355c1.037-.814.023-2.552-1.217-3s-2.72-.384-3.71-1.256c-1.421-1.252-.833-3.781.689-4.908s3.56-1.212,5.452-1.128c8.322.37,16.776,3.13,24.82.964,6.6-1.778,11.873-6.619,16.86-11.3l-1.667-.931c-4.006,5.005-10.817,6.537-17.016,8.171s-12.974,4.266-15.546,10.138a68.414,68.414,0,0,0,21.692,1.039c-.828,1.61-2.918,1.989-4.718,2.178l-13.872,1.461a2.028,2.028,0,0,1-1.386-.184c-.391-.274-.461-.992-.019-1.17" fill="none" stroke="#142d52" stroke-linecap="round" stroke-linejoin="round" stroke-miterlimit="10" stroke-width="3"/>
            <path id="Tracé_200" data-name="Tracé 200" d="M279.442,1688.146a48.987,48.987,0,0,0-16.954,17.614c-1.951,3.466-3.84,7.507-7.589,8.837l31.374-36.363c1.687-1.955,3.441-4.05,3.855-6.6s-1.138-5.6-3.712-5.8c-2.035-.162-3.838,1.5-4.609,3.392a20.17,20.17,0,0,0-.938,6.025,35.611,35.611,0,0,1-14.284,25.473c6.143-13.175,13.388-25.8,20.623-38.411l-26.125,34.641a161.432,161.432,0,0,1-13.663,16.537c-.111-3.883,2.2-7.371,4.451-10.539q18.367-25.887,39.2-49.9c-7.806,11.454-16.741,22.089-25.659,32.7l-24.691,29.383c-1.566,1.863-3.824,3.925-6.093,3.047a135.366,135.366,0,0,0,40.661-28.62A345.267,345.267,0,0,1,230.5,1727.7" fill="none" stroke="#142d52" stroke-linecap="round" stroke-linejoin="round" stroke-miterlimit="10" stroke-width="3"/>
        </g>
        <path id="Tracé_105" data-name="Tracé 105" d="M1084.023,1744.423c-.144-3.087-.319-6.292-1.78-9.016s-4.607-4.807-7.594-4.017c-3.738.989-5.151,5.621-4.962,9.483.311,6.331,3.14,12.243,6.169,17.811a3.281,3.281,0,0,0,.893,1.171,3.2,3.2,0,0,0,2.74.068c10.678-3.174,19.974-12.6,20.407-23.736.05-1.275-.179-2.816-1.345-3.333-.981-.435-2.1.1-3.032.627-4.794,2.69-9.926,5.755-11.952,10.864" transform="translate(8 -144)" fill="none" stroke="#142d52" stroke-linecap="round" stroke-linejoin="round" stroke-miterlimit="10" stroke-width="3"/>
        <path id="Tracé_106" data-name="Tracé 106" d="M1065.746,1782.181c.62-5.173,7.694-8.441,6.851-13.583a4.878,4.878,0,1,0-8.764,3.653,10.047,10.047,0,0,0-5.132-3.01c-1.99-.31-4.312.719-4.825,2.667-.646,2.456,1.7,4.649,3.964,5.8s4.945,2.176,5.893,4.532" transform="translate(-6 -155)" fill="none" stroke="#142d52" stroke-linecap="round" stroke-linejoin="round" stroke-miterlimit="10" stroke-width="3"/>
        <g id="Groupe_57" data-name="Groupe 57" transform="translate(-168 -9)">
            <g id="Groupe_56" data-name="Groupe 56">
                <path id="Tracé_107" data-name="Tracé 107" d="M1027.856,1646.721a10.5,10.5,0,0,1,4.813-9.995,15.06,15.06,0,0,1,12.528-1.676,9.581,9.581,0,0,1,3.167,1.62,10.938,10.938,0,0,1,3.068,7.866" fill="#ffbbf7" stroke="#142d52" stroke-linecap="round" stroke-linejoin="round" stroke-miterlimit="10" stroke-width="3"/>
                <path id="Tracé_108" data-name="Tracé 108" d="M1027.844,1646.765c.119-4.247-.281-8.718-2.975-12.292s-8.318-5.851-12.847-4.075a11.138,11.138,0,0,0-5.037,4.305l-2.555,3.57" fill="#ffbbf7" stroke="#142d52" stroke-linecap="round" stroke-linejoin="round" stroke-miterlimit="10" stroke-width="3"/>
                <g id="Groupe_55" data-name="Groupe 55">
                    <g id="Groupe_54" data-name="Groupe 54">
                        <path id="Tracé_109" data-name="Tracé 109" d="M1033.624,1579.651c10.624-3.642,19.666.579,28.967,8.027-.606-2.95-.527-5.921,1.941-7.647s5.792-2.983,8.738-2.36c4.237.9,10.847,5.97,11.749,10.207,1.581,7.419-.5,9.142-4.3,11.219-4.136,2.259-9.628,2.265-14.1.793,1.165,10.623-4.757,20.216-14.511,24.584a30.533,30.533,0,0,1,18.311,19.259c2.123,6.811,1.374,15.1-3.949,19.855-5.832,5.207-14.692,4.467-22.419,3.279,2.518-.972,5.478.447,7.025,2.659s1.962,5.013,2.089,7.709c.255,5.373.289,12.462-3.605,16.529-3.555,3.713-8.863,5.317-13.907,5.268-5.882-.057-11.551-2.056-17.093-4.031l-1.661-9.927a10.12,10.12,0,0,1-5.338,7.708c-4.739,2.429-10.452.74-15.49-.985-3.709-1.27-7.644-2.7-10-5.834a12.945,12.945,0,0,1-2.242-5.468c-1.663-9.042,4.447-18.843,13.3-21.33-5.1,1.075-10.228-2.907-12.073-7.785s-1.147-10.332,0-15.42c.846-3.749,1.968-7.542,4.288-10.606,2.809-3.71,7.155-6.018,11.652-7.215s15.35-.65,20-.833c-3.256-.816-13.669-16.131-5.633-29.916a12.8,12.8,0,0,1-9.969-8.97c-1.154-4.556,3.586-11.98,10.64-11.716,3.1.116,2.875-1.3,8.367,1.106,6.058,2.659,7.708,7.074,7.567,11.219" fill="none" stroke="#142d52" stroke-linecap="round" stroke-linejoin="round" stroke-miterlimit="10" stroke-width="3"/>
                        <path id="Tracé_110" data-name="Tracé 110" d="M1049.112,1637.419l3.777,6.786" fill="none" stroke="#142d52" stroke-linecap="round" stroke-miterlimit="10" stroke-width="3"/>
                        <path id="Tracé_111" data-name="Tracé 111" d="M1053.623,1644.772a40.729,40.729,0,0,0-12.754,3.814,5.669,5.669,0,0,0-2.9,2.444c-.533,1.177.041,2.9,1.324,3.049a4.352,4.352,0,0,0-3.345,2.273c-.512,1.309.661,3.141,2.005,2.727a2.05,2.05,0,1,0-.087,4.039c-1.033-.182-1.607,1.4-1,2.25a4.06,4.06,0,0,0,2.792,1.261l5.326.876" fill="none" stroke="#142d52" stroke-linecap="round" stroke-linejoin="round" stroke-miterlimit="10" stroke-width="3"/>
                        <path id="Tracé_112" data-name="Tracé 112" d="M1011.846,1629.456l-9.074,4.533" fill="none" stroke="#142d52" stroke-linecap="round" stroke-miterlimit="10" stroke-width="3"/>
                        <path id="Tracé_113" data-name="Tracé 113" d="M997.9,1632.344a23.174,23.174,0,0,1,4.6,4.62l4.517,5.476c.807.977,1.661,2.261,1.128,3.411-.641,1.384-2.616,1.279-4.107.952,1.519-.88,3.472,1.293,2.72,2.879s-3.148,1.835-4.523.743c.4,1.386,2.925.893,3.5,2.217.439,1.008-.774,2.039-1.873,2.073s-2.155-.476-3.254-.487c.085,1.242,2.273,1.474,2.33,2.718.047,1.024-1.336,1.376-2.362,1.38l-4.955.021" fill="none" stroke="#142d52" stroke-linecap="round" stroke-linejoin="round" stroke-miterlimit="10" stroke-width="3"/>
                        <path id="Tracé_114" data-name="Tracé 114" d="M1048.183,1675.362a19.05,19.05,0,0,0-27.82.032" fill="none" stroke="#142d52" stroke-linecap="round" stroke-linejoin="round" stroke-miterlimit="10" stroke-width="3"/>
                        <path id="Tracé_115" data-name="Tracé 115" d="M1004.845,1660.473a21.624,21.624,0,0,1,7.365,3.53,10.152,10.152,0,0,1,3.99,6.919" fill="none" stroke="#142d52" stroke-linecap="round" stroke-linejoin="round" stroke-miterlimit="10" stroke-width="3"/>
                        <path id="Tracé_116" data-name="Tracé 116" d="M1064.816,1590.952l2.025-1.71a4.447,4.447,0,0,1,6.072-1.032c1.454.693,3,1.476,3.758,2.9s.149,3.636-1.446,3.861a4.162,4.162,0,0,1-1.417-.145,22.452,22.452,0,0,0-8.192-.183" fill="none" stroke="#142d52" stroke-linecap="round" stroke-linejoin="round" stroke-miterlimit="10" stroke-width="3"/>
                        <path id="Tracé_117" data-name="Tracé 117" d="M1025.132,1580.792c-1.976-.924-2.116-3.738-3.633-5.3a3.946,3.946,0,0,0-4.849-.518,4.041,4.041,0,0,0-1.5,4.662c.757,2.006,2.949,3.058,4.223,4.782" fill="none" stroke="#142d52" stroke-linecap="round" stroke-linejoin="round" stroke-miterlimit="10" stroke-width="3"/>
                        <path id="Tracé_118" data-name="Tracé 118" d="M1049.936,1668.97c-2.818-1.242-6.076-.88-9.055-1.659a24.083,24.083,0,0,1-3.2-1.169.909.909,0,0,0,.455.517c3.8,2.476,8.755,2.315,12.89,4.182a11.984,11.984,0,0,1-3.3-2.032,8.9,8.9,0,0,1,4.448,4.244c-1.5-1.876-4-2.54-6.289-3.258a52.4,52.4,0,0,1-8.254-3.383" fill="none" stroke="#142d52" stroke-linecap="round" stroke-linejoin="round" stroke-miterlimit="10" stroke-width="3"/>
                        <path id="Tracé_119" data-name="Tracé 119" d="M1001.953,1658.452l-4.782,1.247c-1.63.425-3.369.916-4.454,2.205,2.579-.117,4.879-1.553,7.173-2.738.75-.388,1.746-.725,2.364-.15a.269.269,0,0,1,.11.235.283.283,0,0,1-.143.16,8.439,8.439,0,0,1-2.509.806c-1.112.292-2.152.8-3.231,1.2a31.816,31.816,0,0,1-6.018,1.354" fill="none" stroke="#142d52" stroke-linecap="round" stroke-linejoin="round" stroke-miterlimit="10" stroke-width="3"/>
                        <path id="Tracé_120" data-name="Tracé 120" d="M1039.587,1658.938a179.539,179.539,0,0,1-18.828,13.838,3.12,3.12,0,0,1-2.016.679,2.778,2.778,0,0,1-1.7-1.237l-10.873-18.582a2.9,2.9,0,0,1-1.45,2.273.765.765,0,0,1-.4.123c-.3-.015-.559-.331-.845-.242l.583.249a.382.382,0,0,1,.173.114.39.39,0,0,1,.021.308,3.227,3.227,0,0,1-1.18,2.261c-.3.181-.687.274-.886.568" fill="none" stroke="#142d52" stroke-linecap="round" stroke-linejoin="round" stroke-miterlimit="10" stroke-width="3"/>
                        <path id="Tracé_121" data-name="Tracé 121" d="M1052.107,1624.214a6.755,6.755,0,0,0-3.9-.038,34.994,34.994,0,0,0,4.577,1.22q-2.429-1.172-4.8-2.454a12.291,12.291,0,0,0,10.248-2.858,19.528,19.528,0,0,1-6.864,4.233c-.166.059-.421.067-.445-.107" fill="none" stroke="#142d52" stroke-linecap="round" stroke-linejoin="round" stroke-miterlimit="10" stroke-width="3"/>
                        <path id="Tracé_122" data-name="Tracé 122" d="M1065.464,1591.1q2.665-1.039,5.287-2.185a9.312,9.312,0,0,1-4.691,1.839c-.174.017-.388.059-.44.226-.085.281.352.394.642.352l5.728-.827a6,6,0,0,1-2.927-.225,3.512,3.512,0,0,0-2.86.294.626.626,0,0,0-.213.245.5.5,0,0,0,.317.6,1.534,1.534,0,0,0,.742.046,25.933,25.933,0,0,1,6.414.158c.292.043.65.157.686.45-2.288,1.165-5.224-1.29-7.522-.145a9.023,9.023,0,0,0,6.264,1.711c.216-.022.484-.1.507-.32a4.112,4.112,0,0,0-2.392-.539l-5.877-.1c-.267-.005-.652.176-.508.4a.369.369,0,0,0,.122.106l2.006,1.277a2.876,2.876,0,0,1-1.592-1.052" fill="none" stroke="#142d52" stroke-linecap="round" stroke-linejoin="round" stroke-miterlimit="10" stroke-width="3"/>
                        <path id="Tracé_123" data-name="Tracé 123" d="M1023.025,1580.145a2.6,2.6,0,0,1-1.948-.951,7.685,7.685,0,0,1-1.136-1.919q2.023,1.991,4.12,3.9a3.851,3.851,0,0,0-1.918-1.7,36.047,36.047,0,0,0-3.627-1.661c-.094.4.28.734.6.984a14.387,14.387,0,0,1,3.306,3.614q-2.208-1.483-4.432-2.943l3.04,5.721c-.325.108-.617-.222-.8-.51l-2.551-3.99q1.915,1.593,3.946,3.044a.764.764,0,0,0,.243-.922,5.055,5.055,0,0,1-.348-.976c-.037-.344.209-.76.552-.711a.8.8,0,0,1,.453.326l1.417,1.656" fill="none" stroke="#142d52" stroke-linecap="round" stroke-linejoin="round" stroke-miterlimit="10" stroke-width="3"/>
                    </g>
                    <path id="Tracé_124" data-name="Tracé 124" d="M1025.966,1650.448a28.477,28.477,0,0,0-4.621-12.6,83.948,83.948,0,0,1,4.1,19.683c-.781.024-1.308-.767-1.667-1.461a132.886,132.886,0,0,1-7.609-17.77,107.666,107.666,0,0,1,.383,24.489,110.453,110.453,0,0,1-7.216-13.893,27.6,27.6,0,0,1,1.391,8.874,7.731,7.731,0,0,1-2.946-8.014c.491-1.925,1.722-3.587,2.31-5.485s.25-4.388-1.548-5.233l.1,2.6-2.883-3a40.62,40.62,0,0,0,8.168-8.276l2.559,7.08a13.458,13.458,0,0,0-4.007-4.7,55.917,55.917,0,0,1,.7,14.268,25.745,25.745,0,0,1-2.492-11.429,40.166,40.166,0,0,0,1.537,7.822,2.285,2.285,0,0,0,.531,1.04,1.6,1.6,0,0,0,2.1-.164,4.291,4.291,0,0,0,1.04-2.039,36.188,36.188,0,0,0,1.382-11.4,98.2,98.2,0,0,0,6.58,12.576,18.932,18.932,0,0,0-3.861-11.206,34.039,34.039,0,0,1,7.685,16.725c-1.537-1.8-4.325-1.577-6.552-2.368-3.2-1.138-5.166-4.41-6.142-7.667l2.311,22.185c.264,2.535.577,5.2,2.081,7.259a117.946,117.946,0,0,1-5.062-17.536,25.9,25.9,0,0,0,5.8,20.5l12.447-12.239a27.355,27.355,0,0,1-3.479,6.552l5.5-10.9c1.428-2.831,2.9-5.72,5.183-7.917s5.582-3.61,8.655-2.833c-1.376-1.143-1.337-3.526-2.884-4.425a4.373,4.373,0,0,0-2.087-.417l-4.456-.148a9.768,9.768,0,0,0-4.918.69c-3.519,1.855-3.68,7.183-6.92,9.492a105.488,105.488,0,0,1,9.943-10.474,4.033,4.033,0,0,1,1.376-.943,3.931,3.931,0,0,1,1.945.012,42.241,42.241,0,0,1,6.268,1.66,21.847,21.847,0,0,0-13.986,10.448l12.758-8.226-6.916.979a13.535,13.535,0,0,0-4.16,1.049c-2.74,1.356-4.206,4.329-5.6,7.05a109.537,109.537,0,0,1-9.637,15.472c6.875-5.47,11.846-12.919,16.7-20.24l-7.584,12.125a30.989,30.989,0,0,0-4.034,8.126l8.554-13.9c-4.417,2.234-6.1,7.644-9.615,11.131a1.283,1.283,0,0,1-.853.474c-.436,0-.745-.414-.963-.791-1.511-2.626-2.011-5.7-2.415-8.7-.826-6.135-1.362-12.309-1.649-18.493l5.316,24.722a104.431,104.431,0,0,1-3.121-21.068,38.907,38.907,0,0,1,4.825,22.887c-4.051-3.926-5.138-9.909-7.682-14.944-.722-1.429-2.05-3-3.591-2.569a124.2,124.2,0,0,1,3.229,14.439l-4.669-9.808a5.547,5.547,0,0,0-1.891-2.544,51.644,51.644,0,0,0,5.075,18.005,6.516,6.516,0,0,0,2.154,2.81,2.436,2.436,0,0,0,3.222-.4,3.6,3.6,0,0,0,.283-2.508l-.967-7.474a34.052,34.052,0,0,1,6.039,10.154" fill="none" stroke="#142d52" stroke-linecap="round" stroke-linejoin="round" stroke-miterlimit="10" stroke-width="3"/>
                </g>
            </g>
            <path id="Tracé_125" data-name="Tracé 125" d="M1034.106,1638.78a43.041,43.041,0,0,1,7.6-.164,14.439,14.439,0,0,1,7.109,2.447,6.883,6.883,0,0,0-3-2.647l-4.758-2.752" fill="none" stroke="#142d52" stroke-linecap="round" stroke-linejoin="round" stroke-miterlimit="10" stroke-width="3"/>
        </g>
        <g id="Groupe_58" data-name="Groupe 58" transform="translate(2810.495 1127.419) rotate(99)">
            <path id="Tracé_126" data-name="Tracé 126" d="M933.5,1518.25c-18.5,24.778-27.31,51.953-55.234,67.867a9.574,9.574,0,0,0-3.726,3.048,9.085,9.085,0,0,0-.972,4.019,132.464,132.464,0,0,0,8.852,58.869,4.659,4.659,0,0,0,1.012,1.744c1.246,1.172,3.414.608,4.55-.671a11.832,11.832,0,0,0,2.03-4.665c2.572-8.635,8.293-15.925,13.891-22.985,12.9-16.265,24.839-34.613,39.993-48.63,17.85-16.511,36.645-32.11,54.934-48.136" fill="#fff" stroke="#142d52" stroke-linecap="round" stroke-linejoin="round" stroke-miterlimit="10" stroke-width="3"/>
            <path id="Tracé_127" data-name="Tracé 127" d="M813.714,1644.016c3.779-7.324,7.606-14.719,12.94-21,5.069-5.97,11.762-11.5,12.75-19.269.416-3.279-.271-6.587-.956-9.82-3.869-18.288-6.15-38.467-13.228-55.81a232.946,232.946,0,0,1-9.54-28.513c-2.562-9.7,52.237,25.84,52.237,25.84l-10.578,80.178v7.394" fill="#fff" stroke="#142d52" stroke-linecap="round" stroke-linejoin="round" stroke-miterlimit="10" stroke-width="3"/>
            <path id="Tracé_128" data-name="Tracé 128" d="M868.093,1536.574c-1.319,13.805-2.149,28.945,2.6,41.966,4.623,12.684,6.782,25.631,8.539,38.978l5.573,42.339c.739,5.62,1.445,11.538-.685,16.791-1.446,3.565-4.078,6.5-6.66,9.351-1.837,2.03-3.757,4.12-6.278,5.189s-5.825.813-7.524-1.334a181.043,181.043,0,0,1-12.9,19.572c-1.824,2.412-4.2,5.014-7.219,4.838-2.486-.145-4.515-2.291-5.213-4.681a14.062,14.062,0,0,1,.3-7.371c2.831-11.07,10.393-20.831,11.251-32.225l-5.911,1.35a2.29,2.29,0,0,1-3.368-2.071l-4.115-17.039c-.474-1.962-1.343-4.307-3.341-4.6a4.235,4.235,0,0,0-2.078.338c-6.01,2.245-9.242,8.551-12.906,13.817" fill="#fff" stroke="#142d52" stroke-linecap="round" stroke-linejoin="round" stroke-miterlimit="10" stroke-width="3"/>
            <path id="Tracé_129" data-name="Tracé 129" d="M831.906,1617.916a14.312,14.312,0,0,0-5.56,1.615,47.583,47.583,0,0,0-10.822,6.116c-3.221,2.627-5.842,6.208-6.521,10.308a9.493,9.493,0,0,0,1.118,6.624,6.141,6.141,0,0,0,5.81,2.916c2.656-.383,4.552-2.745,5.856-5.09a31.612,31.612,0,0,0,3.559-10.2" fill="#fff" stroke="#142d52" stroke-linecap="round" stroke-linejoin="round" stroke-miterlimit="10" stroke-width="3"/>
            <path id="Tracé_130" data-name="Tracé 130" d="M816.119,1671.355a5.367,5.367,0,0,1-3.594-4.5,13.951,13.951,0,0,1,.764-6c2.78-9.464,7.432-18.536,14.474-25.443a7.687,7.687,0,0,1,4.337-2.556c2.8-.281,5.175,2.431,5.578,5.215s-13.056,23.151-14.06,25.778c.764-1.456,13.987-20.535,15.167-21.679a5.27,5.27,0,0,1,4.464-1.615c2.681.495,4.076,3.675,3.816,6.389-.253,2.638-21.158,33.5-14.552,24.531.293-.4,5.558-6.764,5.778-7.206,1.2-2.406,8.8-11.55,10.007-10.728a5.162,5.162,0,0,1,1.855,4.113c.264,5.2-9.835,21.833-12.853,26.08.958-1.088,9.779-14.607,11.1-15.2,4.519-2,4.6,3.143,4.523,4.591-.342,6.648-7.656,16.02-11.367,21.546-1.211,1.8-2.563,3.653-4.543,4.544s-4.747.4-5.651-1.574c-.718-1.565-.266-3.854-3.114-3.84a3.891,3.891,0,0,0-1.538.384c-2.057.913-4.238-.365-5.235-2.172a8.664,8.664,0,0,1-.811-4.9,2.33,2.33,0,0,0-.22-1.588,2.465,2.465,0,0,0-1.13-.689,8.634,8.634,0,0,1-3.259-13.6" fill="#fff" stroke="#142d52" stroke-linecap="round" stroke-linejoin="round" stroke-miterlimit="10" stroke-width="3"/>
            <path id="Tracé_131" data-name="Tracé 131" d="M863.547,1689.946l1.411-9.833a106.645,106.645,0,0,0,1.261-11.975" fill="#fff" stroke="#142d52" stroke-linecap="round" stroke-linejoin="round" stroke-miterlimit="10" stroke-width="3"/>
            <path id="Tracé_132" data-name="Tracé 132" d="M876.779,1686.708c2.638-6.1,1.048-13.082.942-19.73a78.408,78.408,0,0,1,.524-9.058" fill="#fff" stroke="#142d52" stroke-linecap="round" stroke-linejoin="round" stroke-miterlimit="10" stroke-width="3"/>
            <path id="Tracé_133" data-name="Tracé 133" d="M830.6,1619.032q-3.36,4.263-6.366,8.791c-.35-.637.064-1.41.467-2.015,1.708-2.571,3.5-5.227,6.153-6.812a9.221,9.221,0,0,0-7.345,8.934,14.317,14.317,0,0,0,2.479-5.382,1.525,1.525,0,0,0,.029-.792,1.118,1.118,0,0,0-1.667-.374,3.224,3.224,0,0,0-1.027,1.658l-1.549,4.262a2.57,2.57,0,0,0-.077,2.17l.593,1.88a17.016,17.016,0,0,0,1.759-5.641l-1.707,5.041a.859.859,0,0,0-.059.544c.117.34.625.381.907.157a1.688,1.688,0,0,0,.479-.944q.669-2.6,1.135-5.242l-.159,5.5,2.55-6.8a46.573,46.573,0,0,0-5.058,14.345,40.193,40.193,0,0,1-.186-9.086" fill="#fff" stroke="#142d52" stroke-linecap="round" stroke-linejoin="round" stroke-miterlimit="10" stroke-width="3"/>
            <path id="Tracé_134" data-name="Tracé 134" d="M865.1,1690.434l2.659-11.462a6.356,6.356,0,0,0,.242-1.859,17.176,17.176,0,0,0-.393-1.876c-.4-2.22.677-4.665-.319-6.69-.157,1.048-.216,2.108-.275,3.166l-1.024,18.46" fill="#fff" stroke="#142d52" stroke-linecap="round" stroke-linejoin="round" stroke-miterlimit="10" stroke-width="3"/>
            <path id="Tracé_135" data-name="Tracé 135" d="M879.518,1683.474a27.109,27.109,0,0,0,.679-5.96c0-1.028-.053-2.054-.109-3.08l-.881-16.2" fill="#fff" stroke="#142d52" stroke-linecap="round" stroke-linejoin="round" stroke-miterlimit="10" stroke-width="3"/>
            <path id="Tracé_136" data-name="Tracé 136" d="M884.88,1651.968a180.677,180.677,0,0,1-1.889-23.339,93.226,93.226,0,0,0-.121-10.143,61.464,61.464,0,0,0-2.036-9.576l-5.239-19.482c1.776,5.472,3.564,11,4.058,16.735.211,2.444.185,4.905.417,7.347a69.607,69.607,0,0,0,1.248,7.417l6.677,32.466c-.978.589-1.826-.946-1.954-2.081l-.655-5.821a8.612,8.612,0,0,0,2.736,7.06,11.492,11.492,0,0,0,.261-5.615,357.344,357.344,0,0,0-6.846-38.41" fill="#fff" stroke="#142d52" stroke-linecap="round" stroke-linejoin="round" stroke-miterlimit="10" stroke-width="3"/>
            <path id="Tracé_137" data-name="Tracé 137" d="M852.682,1678.9q-3.691,6.481-7.528,12.88c-2.793,4.658-5.7,9.438-6.548,14.8-.074.471-.083,1.057.324,1.307.706.435,1.341-.654,1.491-1.47,2.017-10.905,9.564-19.9,13.677-30.2a9.882,9.882,0,0,0,.951-5.088c-.268-1.726-1.634-3.4-3.38-3.444" fill="#fff" stroke="#142d52" stroke-linecap="round" stroke-linejoin="round" stroke-miterlimit="10" stroke-width="3"/>
            <path id="Tracé_138" data-name="Tracé 138" d="M850.657,1659.637a13.973,13.973,0,0,0-.069-6.415c-.5.064-.429.794-.29,1.274a9.252,9.252,0,0,1-.048,4.137,71.329,71.329,0,0,1-2.212,9.112l1.515-4.872c.978-3.149,1.969-6.413,1.575-9.686a.789.789,0,0,0-.32-.653.818.818,0,0,0-.491-.023l-2.1.344" fill="#fff" stroke="#142d52" stroke-linecap="round" stroke-linejoin="round" stroke-miterlimit="10" stroke-width="3"/>
            <path id="Tracé_139" data-name="Tracé 139" d="M842.37,1657.36c.826-2.767,2.814-5,4.489-7.354s3.125-5.167,2.624-8.01a1.8,1.8,0,0,0-.47-1.046,2.039,2.039,0,0,0-.888-.395q-1.881-.484-3.8-.8c.3.576,1.1.614,1.664.93a3.328,3.328,0,0,1,1.291,1.948q.719,2.063,1.234,4.19l.445-3.479a4.6,4.6,0,0,0-.041-2.013,1.574,1.574,0,0,0-1.481-1.163" fill="#fff" stroke="#142d52" stroke-linecap="round" stroke-linejoin="round" stroke-miterlimit="10" stroke-width="3"/>
            <path id="Tracé_140" data-name="Tracé 140" d="M836.476,1641.814l2.564-5.634a.97.97,0,0,0-.254-1.45l-2.922-2.5a5.094,5.094,0,0,1,3.273,3.9,6.081,6.081,0,0,1,.193,1.854,4.633,4.633,0,0,1-2.184,3.584" fill="#fff" stroke="#142d52" stroke-linecap="round" stroke-linejoin="round" stroke-miterlimit="10" stroke-width="3"/>
            <path id="Tracé_141" data-name="Tracé 141" d="M995.04,1656.041" fill="#fff" stroke="#142d52" stroke-linecap="round" stroke-miterlimit="10" stroke-width="3"/>
            <path id="Tracé_142" data-name="Tracé 142" d="M848.986,1705.875a13.223,13.223,0,0,0-2.508-.933,1.946,1.946,0,0,0-1.146-.045,2.037,2.037,0,0,0-.751.591q-.574.627-1.124,1.275a1.913,1.913,0,0,0-.633,1.527,1.776,1.776,0,0,0,.348.659c.788,1.054,2.014,2.023,3.3,1.738a3.171,3.171,0,0,0,2.025-1.955c.392-.892.573-1.866.974-2.753" fill="#fff" stroke="#142d52" stroke-linecap="round" stroke-linejoin="round" stroke-miterlimit="10" stroke-width="3"/>
            <path id="Tracé_143" data-name="Tracé 143" d="M835.057,1637.531c-.447-.385-.768-.9-1.193-1.3a1.729,1.729,0,0,0-1.593-.555,2.234,2.234,0,0,0-.82.534l-1.7,1.508a1.043,1.043,0,0,0-.309.379c-.189.5.41.912.9,1.109l2.913,1.162a.529.529,0,0,0,.851-.314l.792-1.822" fill="#fff" stroke="#142d52" stroke-linecap="round" stroke-linejoin="round" stroke-miterlimit="10" stroke-width="3"/>
            <path id="Tracé_144" data-name="Tracé 144" d="M844.667,1644.938l-1.811-1.819a.56.56,0,0,0-.255-.174.572.572,0,0,0-.437.158l-1.7,1.248a1.34,1.34,0,0,0-.44.446c-.27.54.255,1.124.727,1.5l2.3,1.837a.525.525,0,0,0,.387.161c.177-.029.269-.222.332-.389l.846-2.249" fill="#fff" stroke="#142d52" stroke-linecap="round" stroke-linejoin="round" stroke-miterlimit="10" stroke-width="3"/>
            <path id="Tracé_145" data-name="Tracé 145" d="M849.4,1657.675a3.251,3.251,0,0,1-1.7-1.058l-1.873,2.932,1.827,1.633a8.548,8.548,0,0,0,.859-2.495" fill="#fff" stroke="#142d52" stroke-linecap="round" stroke-linejoin="round" stroke-miterlimit="10" stroke-width="3"/>
            <path id="Tracé_146" data-name="Tracé 146" d="M851.9,1672.075c-1.1.019-1.795-1.469-2.895-1.425-.9.035-1.387,1.032-1.685,1.876l-.256.725a.749.749,0,0,0,.171.9,4.248,4.248,0,0,0,1,1.053,1.439,1.439,0,0,0,1.388.166c.716-.354.8-1.325.781-2.123" fill="#fff" stroke="#142d52" stroke-linecap="round" stroke-linejoin="round" stroke-miterlimit="10" stroke-width="3"/>
        </g>
        <path id="Tracé_147" data-name="Tracé 147" d="M954.7,1722.135c9.973-3.454,21.264,1.615,28.346,9.44s10.932,17.955,14.992,27.7a432.35,432.35,0,0,0,31.422,61.169c3.092,5,6.326,9.98,10.552,14.064,4.334,4.191,9.571,7.3,14.685,10.495a385.946,385.946,0,0,1,41.232,29.695c4.158,3.433,8.32,7.04,11.078,11.673,2.4,4.035,3.62,8.649,4.736,13.211,1.01,4.128,1.967,8.333,1.792,12.58-.318,7.761-4.448,14.987-9.939,20.481s-12.286,9.475-19.1,13.209c-3.014,1.652-6.14,3.3-9.553,3.695-3.318.385-6.643-.44-9.88-1.259-20.831-5.269-43.382-11.664-55.989-29.064" fill="none" stroke="#142d52" stroke-linecap="round" stroke-linejoin="round" stroke-miterlimit="10" stroke-width="3"/>
        <path id="Tracé_148" data-name="Tracé 148" d="M820.846,1816.183a76.465,76.465,0,0,1,2.888-8.062c5.425-12.193,18.136-21.213,31.477-20.848s26.07,11.06,27.4,24.34c14.46-15.148,39.523-18.793,57.7-8.392,2.878,1.647,5.778,3.66,9.093,3.741,3.017.075,5.8-1.471,8.554-2.694a43.724,43.724,0,0,1,25.594-2.986c14.252,2.669,26.117,17.91,32.748,15.253,30.671-12.287,43.417,7.589,46.344,14.635,3.318,7.987,1.662,15.116-9.116,31.758,13.036-3.814,29.772,13.336,30.291,26.909s-10.22,25.926-23.173,30.018-27.32,1.094-39.351-5.211c-15.291,25.951-52.854,35.608-78.765,20.249-3.7-2.191-7.26-4.846-11.458-5.77-9.556-2.1-18.284,5.147-26.448,10.541-32.727,21.624-81.1,14.9-106.69-14.836-21.725,29.925-68.394,37.818-98.751,16.7a19.39,19.39,0,0,0-5.918-3.282c-5.4-1.411-10.542,2.546-15.13,5.724-22.8,15.8-55.41,15.821-78.233.052-5.122-3.539-10.28-7.967-16.505-8.072-4.473-.076-8.63,2.142-12.994,3.129-12.01,2.72-25.161-5.087-29.511-16.607s-.208-25.4,9.048-33.524c-14.424-1.97-27.024-12.474-32.895-25.8s-5.35-29,.015-42.537c1.814-4.577,4.225-9.034,7.868-12.345,5.521-5.018,13.246-6.853,20.691-7.338a72.7,72.7,0,0,1,54.892,20.381c4.566-12.494,10.016-26.046,21.717-32.371,12.117-6.549,27.694-2.991,38.821,5.127s18.766,20.034,26.143,31.665A33.892,33.892,0,0,1,748.6,1822.6c8.4-11.539,18.482-24.091,32.677-25.595,15.065-1.6,28.006,9.9,38.76,20.565" fill="#fff" stroke="#142d52" stroke-linecap="round" stroke-linejoin="round" stroke-miterlimit="10" stroke-width="3"/>
        <path id="Tracé_150" data-name="Tracé 150" d="M985.3,1799.593l-5.839,10.818a12.6,12.6,0,0,1-2.773,3.864,4.277,4.277,0,0,1-4.45.833c-1.868-.911-2.347-3.318-2.5-5.391a64.436,64.436,0,0,1,.134-10.911,103.508,103.508,0,0,1-7.305,14.064c-1.366,2.2-3.847,4.648-6.125,3.415-1.735-.939-1.866-3.335-1.773-5.305l.442-9.277a26.9,26.9,0,0,1-7.937,9.583,2.957,2.957,0,0,1-2.017.8c-1.356-.163-1.839-1.861-1.964-3.221a70.16,70.16,0,0,1-.267-8.491c-2.761,1.226-1.919,6.02-4.545,7.512-2.347,1.333-5.262-1.568-5.023-4.256s2.326-4.792,4.288-6.646l6.951-6.569a9.184,9.184,0,0,1,7.174-3.282,130.245,130.245,0,0,1,20.135-.8c4.18.266,8.553,1.03,11.8,3.672,3.649,2.965,5.23,7.738,6.384,12.3" fill="#fff" stroke="#142d52" stroke-linecap="round" stroke-linejoin="round" stroke-miterlimit="10" stroke-width="3"/>
        <path id="Tracé_151" data-name="Tracé 151" d="M866.079,1785.015l-2.7,10.914a3.33,3.33,0,0,0-.118,1.7c.437,1.528,2.715,1.585,4.011.665s2.112-2.41,3.439-3.283a25.741,25.741,0,0,0-2.536,6.267,8.178,8.178,0,0,0-.192,4.333,3.53,3.53,0,0,0,3.119,2.655c1.892,0,3.163-1.874,4.079-3.529l4.29-7.752a52.333,52.333,0,0,0-2.8,16.484,4.228,4.228,0,0,0,4.283-1.58,12.417,12.417,0,0,0,2.028-4.358l2.575-8.176c1.2,1.835.575,4.241.322,6.419s.364,4.964,2.506,5.435,3.851-1.769,4.778-3.762a45.444,45.444,0,0,0,3.979-14.368,3.158,3.158,0,0,0-.211-1.909c-.477-.833-1.539-1.066-2.444-1.383-2.885-1.011-4.949-3.511-7.462-5.251-3.821-2.645-8.574-3.468-13.16-4.224-3.544-.585-7.462-1.1-10.489.834-1.9,1.211-3.127,3.2-4.292,5.131" fill="#fff" stroke="#142d52" stroke-linecap="round" stroke-linejoin="round" stroke-miterlimit="10" stroke-width="3"/>
        <path id="Tracé_152" data-name="Tracé 152" d="M903.087,1762.339c1.415-5.074,6.773-8.412,12.04-8.511s10.291,2.545,14.127,6.155a1.681,1.681,0,0,1,.628.973c.069.66-.6,1.138-1.19,1.441a28.16,28.16,0,0,1-25.859-.349" fill="none" stroke="#142d52" stroke-linecap="round" stroke-linejoin="round" stroke-miterlimit="10" stroke-width="3"/>
        <path id="Tracé_153" data-name="Tracé 153" d="M939.424,1760.467c1.833-1.268,2.984-3.506,4.732-4.921,2.061-1.668,4.709-2.015,7.231-2.311a13.485,13.485,0,0,1,3.559-.1,14.016,14.016,0,0,1,4.036,1.511l4.321,2.144a1.867,1.867,0,0,1,.832.641c.478.785-.153,1.818-.787,2.447a17.181,17.181,0,0,1-11.931,4.956,20.923,20.923,0,0,1-12.266-4.159" fill="none" stroke="#142d52" stroke-linecap="round" stroke-linejoin="round" stroke-miterlimit="10" stroke-width="3"/>
        <path id="Tracé_154" data-name="Tracé 154" d="M915.3,1753.418a5.085,5.085,0,0,0-5.2,3.313,7.047,7.047,0,0,0,.972,6.328,3.652,3.652,0,0,0,1.322,1.269,4.189,4.189,0,0,0,1.12.324,9.644,9.644,0,0,0,3.321.132,4.5,4.5,0,0,0,2.849-1.59,4.715,4.715,0,0,0,.8-1.828,7.381,7.381,0,0,0-4.412-8.25" fill="#142d52"/>
        <path id="Tracé_155" data-name="Tracé 155" d="M952.061,1753.418a5.084,5.084,0,0,0-5.2,3.313,7.044,7.044,0,0,0,.971,6.328,3.652,3.652,0,0,0,1.322,1.269,4.2,4.2,0,0,0,1.12.324,9.644,9.644,0,0,0,3.321.132,4.5,4.5,0,0,0,2.849-1.59,4.715,4.715,0,0,0,.8-1.828,7.38,7.38,0,0,0-4.412-8.25" fill="#142d52"/>
        <path id="Tracé_156" data-name="Tracé 156" d="M975.662,1749.343c-2.988-7.409-6.367-15.3-13.132-19.552-4.664-2.931-10.331-3.709-15.817-4.207-12.475-1.132-25.536-1.069-36.894,4.214s-20.52,16.978-19.375,29.451c-1.4-5.107-8.814-7.274-12.747-3.727s-2.539,11.143,2.4,13.063c2,.778,4.27.715,6.216,1.62,3.741,1.74,5.049,6.307,5.942,10.336q2.514,11.331,5.027,22.662" fill="none" stroke="#142d52" stroke-linecap="round" stroke-linejoin="round" stroke-miterlimit="10" stroke-width="3"/>
        <path id="Tracé_157" data-name="Tracé 157" d="M975.073,1750.812l1.1,2.822a11.355,11.355,0,0,1,5-4.907c2.191-.92,5.077-.5,6.42,1.457a8.29,8.29,0,0,1,1.03,4.372c.125,2.664.215,5.488-1.087,7.814s-4.547,3.776-6.729,2.244a78.325,78.325,0,0,1-9.255,21.1" fill="none" stroke="#142d52" stroke-linecap="round" stroke-linejoin="round" stroke-miterlimit="10" stroke-width="3"/>
        <path id="Tracé_158" data-name="Tracé 158" d="M981.52,1754.491a2.957,2.957,0,0,0-1.667,1.907l2.461-2.151c-1.213-.253-2.161,1-2.767,2.077a1.126,1.126,0,0,0-.2.6c.026.433.5.671.908.821l3.012,1.112" fill="none" stroke="#142d52" stroke-linecap="round" stroke-linejoin="round" stroke-miterlimit="10" stroke-width="3"/>
        <path id="Tracé_159" data-name="Tracé 159" d="M881.96,1759.55a5.6,5.6,0,0,0,2.083-.1,2.571,2.571,0,0,0-2.232-1.529,27.741,27.741,0,0,1,4.353,3.78,24.567,24.567,0,0,1-4.217,1.474" fill="none" stroke="#142d52" stroke-linecap="round" stroke-linejoin="round" stroke-miterlimit="10" stroke-width="3"/>
        <path id="Tracé_160" data-name="Tracé 160" d="M886.76,1753.023c3.153-16.153,15.9-29.207,30.7-36.4,4.33-2.1,8.967-3.81,13.78-3.94,6.426-.173,12.558,2.452,18.448,5.028,2.111.922,4.609,2.505,4.243,4.779a4.877,4.877,0,0,1-1.436,2.409c-9.979,10.74-25.836,13.061-40.39,14.824-5.028.609-10.415,1.388-14.126,4.835-4.324,4.016-5.133,10.453-5.678,16.329l-1.429,15.407a129.355,129.355,0,0,1-3.787-25.453" fill="none" stroke="#142d52" stroke-linecap="round" stroke-linejoin="round" stroke-miterlimit="10" stroke-width="3"/>
        <path id="Tracé_161" data-name="Tracé 161" d="M957.4,1727.539a41.8,41.8,0,0,1,4.058,7.663c4.69,11.641,4.394,25.795,13.012,34.919,5.664,6,14.024,8.453,21.969,10.668" fill="none" stroke="#142d52" stroke-linecap="round" stroke-linejoin="round" stroke-miterlimit="10" stroke-width="3"/>
        <path id="Tracé_162" data-name="Tracé 162" d="M943.038,1747.174a4.969,4.969,0,0,0-2.141,1.494,1.3,1.3,0,0,0,1.334.948,6.052,6.052,0,0,0,1.727-.422,14.541,14.541,0,0,1,4.037-.382,67.5,67.5,0,0,0,13.821-1.586,3.024,3.024,0,0,0,1.4-.58,1.069,1.069,0,0,0,.25-1.375,1.577,1.577,0,0,0-1.21-.436c-5.613-.349-11.274-.7-16.838.124a10.37,10.37,0,0,0-4.446,1.466c-.2.134-.4.324-.378.559.032.32.437.431.757.459a35.512,35.512,0,0,0,19.908-4.164,34.019,34.019,0,0,0-13.2,2.261,55.1,55.1,0,0,1,11.713-.392" fill="none" stroke="#142d52" stroke-linecap="round" stroke-linejoin="round" stroke-miterlimit="10" stroke-width="3"/>
        <path id="Tracé_163" data-name="Tracé 163" d="M910.719,1745.343a79.556,79.556,0,0,1,9.1.107,15.788,15.788,0,0,1,4.5.8,6.131,6.131,0,0,1,3.428,2.883,4.957,4.957,0,0,1-2.208.15l-17.308-1.442a2.11,2.11,0,0,1-.679-.133c-.908-.4-.743-1.876.068-2.446a4.272,4.272,0,0,1,2.88-.409l8.572.8c2.262.21,4.783.556,6.188,2.34l-15.442-.282c-.977-.018-2.227-.249-2.412-1.21a66.145,66.145,0,0,1,17.253-1,5.748,5.748,0,0,1,3.246.941,2.105,2.105,0,0,1,.42,3" fill="none" stroke="#142d52" stroke-linecap="round" stroke-linejoin="round" stroke-miterlimit="10" stroke-width="3"/>
        <path id="Tracé_164" data-name="Tracé 164" d="M940.292,1765.326a19.563,19.563,0,0,0,3.587,3.818" fill="none" stroke="#142d52" stroke-linecap="round" stroke-miterlimit="10" stroke-width="3"/>
        <path id="Tracé_165" data-name="Tracé 165" d="M926.613,1788.877h1.1" fill="none" stroke="#142d52" stroke-linecap="round" stroke-miterlimit="10" stroke-width="3"/>
        <path id="Tracé_166" data-name="Tracé 166" d="M936.749,1789.166a3.889,3.889,0,0,0-2.2.234" fill="none" stroke="#142d52" stroke-linecap="round" stroke-miterlimit="10" stroke-width="3"/>
        <path id="Tracé_167" data-name="Tracé 167" d="M934.615,1723.264a78.114,78.114,0,0,0-20.709,9.636,69.614,69.614,0,0,0,20.7-5.563,89.009,89.009,0,0,1-13.677,7.694,15.378,15.378,0,0,1-6.869,1.788c-2.417-.107-4.663-1.248-7.039-1.71a12.811,12.811,0,0,0-9.09,1.668,7.768,7.768,0,0,0,9.687-6.035c-5.368,4.281-9.2,10.146-12.939,15.905-1.685,2.595-3.423,5.349-3.589,8.438-.182,3.383,1.48,7.151-.428,9.951a59.1,59.1,0,0,1-1.623-15.911,17.533,17.533,0,0,1,1.414-7.15c2.847-5.817,10.259-7.632,14.8-12.245a74.9,74.9,0,0,0-13.922,22.72c-.953-2.156-.127-4.659.865-6.8a46.245,46.245,0,0,1,25.251-23.493c6.28-2.382,13.142-3.408,18.869-6.918-8.251,5.774-19.422,5.513-28.188,10.47a38.685,38.685,0,0,0,39.436-4.849c-1.345,2.848-3.976,4.839-6.525,6.689q-10.207,7.408-20.761,14.321a2.857,2.857,0,0,1-.815-2.541c8.668-2.817,17.729-5.877,23.949-12.538a92.636,92.636,0,0,0,6.045-7.884c.387,4.085-2.849,7.515-5.837,10.328-4.527,4.262-9.235,8.637-15.1,10.707-5.278,1.864-11.018,1.69-16.6,2.063a82.763,82.763,0,0,0-14.972,2.394A94.076,94.076,0,0,1,944,1722.719c-6.389-3.575-13.847-7.255-20.713-4.714l26.563.087a3.413,3.413,0,0,0,1.977,4.156c-1.053.41-2.071-.592-2.841-1.419-5.1-5.48-13.5-6.882-20.808-5.245s-13.751,5.851-19.788,10.281c-2.7,1.98-5.352,4.019-8.006,6.057a18.227,18.227,0,0,1,19.634-12.682c.05,1.4,1.7,2.076,3.068,2.389a115.039,115.039,0,0,0,20.3,2.786,58.92,58.92,0,0,0-18.817-.094,66.275,66.275,0,0,1,20.034-5.525c-10.644,2.489-22.165,1.023-32.269,5.2-1.528.631-3.237,2.442-2.075,3.619a102.307,102.307,0,0,0,20.006-4.826,32.05,32.05,0,0,0-9.629,2.744c-2.782,1.291-6.39,2.876-8.56.708a58.015,58.015,0,0,1,11.583-3.151,19.081,19.081,0,0,1,7.639-.035,8.252,8.252,0,0,1,5.8,4.607,1.275,1.275,0,0,1,.113.8,1.419,1.419,0,0,1-.792.754q-6.747,3.622-13.769,6.7c-2.667,1.169-5.462,2.3-8.373,2.219s-5.978-1.676-6.884-4.443l15.981-.876-14.665-2.465a34.1,34.1,0,0,0,8.622,1.466,30.59,30.59,0,0,0-11.8,5.159" fill="none" stroke="#142d52" stroke-linecap="round" stroke-linejoin="round" stroke-miterlimit="10" stroke-width="3"/>
        <path id="Tracé_168" data-name="Tracé 168" d="M889.276,1768.67q-.116,2.056-.129,4.117a15.829,15.829,0,0,0,.455,4.546c.789,2.694,2.844,4.9,3.509,7.629.125.515-.056,1.306-.572,1.188a.816.816,0,0,1-.383-.271,16.268,16.268,0,0,1-4.044-13.838l-.113,8.235a3.974,3.974,0,0,0,2.145,4.136,2.171,2.171,0,0,0,1.379.595,1.491,1.491,0,0,0,1.22-1.38,4.78,4.78,0,0,0-.346-1.953,32.268,32.268,0,0,1-1.432-11.55c1.479,1.036,1.251,3.223,1.37,5.024a19.112,19.112,0,0,0,.8,3.861l2.7,9.678" fill="none" stroke="#142d52" stroke-linecap="round" stroke-linejoin="round" stroke-miterlimit="10" stroke-width="3"/>
        <path id="Tracé_169" data-name="Tracé 169" d="M955.335,1724.979a2.5,2.5,0,0,1-1.828-.416,26.117,26.117,0,0,1,12.783,2.649,62.06,62.06,0,0,1-14.5-3.488c8.375-1.721,16.944,1.09,25.032,3.864a11.564,11.564,0,0,0-9.315-3.8A79,79,0,0,1,988.43,1742.3c-5.954-6.151-12.832-12.727-21.389-12.939a79.742,79.742,0,0,1,15.389,17.627,94.926,94.926,0,0,1-13.917-16.31c-1.15-1.706-2.505-3.621-4.548-3.87a42.291,42.291,0,0,1,10.937,20.4,2.759,2.759,0,0,0,.663,1.518c1.1,1,2.7-.293,3.953-1.1,3.109-2.008,7.544-.586,9.867,2.294s2.95,6.772,3,10.472c.034,2.577-.169,5.15-.372,7.718a20.4,20.4,0,0,1-.732-9.2,16.992,16.992,0,0,1-1.252,6.145,5.776,5.776,0,0,1-4.851,3.5,7.446,7.446,0,0,1,2.937-5.125,6.106,6.106,0,0,1-7.146,4.845,26.6,26.6,0,0,1-6.98,15.891c.59.842,1.853-.1,2.369-.991a103.284,103.284,0,0,0,6.594-13.52,27.957,27.957,0,0,0,1.462,8.344,9.439,9.439,0,0,0,5.8,5.814,31.424,31.424,0,0,0-2.868-15.128,7.961,7.961,0,0,0-.312,6.441L985.4,1770.4a10.053,10.053,0,0,0,2.173,5.713" fill="none" stroke="#142d52" stroke-linecap="round" stroke-linejoin="round" stroke-miterlimit="10" stroke-width="3"/>
        <path id="Tracé_170" data-name="Tracé 170" d="M983.374,1788.148l-7.87-3.44a8.323,8.323,0,0,0,7.687-4.78,2.929,2.929,0,1,0-3.542,4.556,10.959,10.959,0,0,0,4.007-5.791,29.775,29.775,0,0,0,1.189,8.274c.552-1.951-2.277-3.79-3.836-2.493a34.855,34.855,0,0,1,11.253,13.2,50.125,50.125,0,0,1-7.186-20.114,64.7,64.7,0,0,0,13.024,20.574,64.435,64.435,0,0,0-4.065-17.529,27.248,27.248,0,0,0,10.283,13.224c.116-7.336-7.983-12.285-9.609-19.439l9.275,14.663a49.74,49.74,0,0,0-8.283-21.515,28.858,28.858,0,0,0,9.625,19.213,114.1,114.1,0,0,0-6.706-22.393c-1.1,3.649-.071,7.546.4,11.329s.118,8.167-2.855,10.553l-6.34-25.043q.759,17.586,3.246,35.043a118.511,118.511,0,0,0,.987-22.258l.862,20.062a268.579,268.579,0,0,1-1.134-34.8,12.521,12.521,0,0,0,2.732,10.083c1.623-2.016,1.128-4.965.347-7.432a47.93,47.93,0,0,0-22.824-27.485c4.837,3.737,8.554,8.7,12.209,13.6a9.8,9.8,0,0,0-10.023-5.349,7.339,7.339,0,0,0,1.433,4.54,71.591,71.591,0,0,1-9.708-21.531c3.316,5.762,10.258,8.467,14.306,13.741,2.009,2.617,3.271,5.829,5.713,8.048l-9.457-17.954" fill="none" stroke="#142d52" stroke-linecap="round" stroke-linejoin="round" stroke-miterlimit="10" stroke-width="3"/>
        <path id="Tracé_171" data-name="Tracé 171" d="M1002.005,1783.374c.906,3.9,4.159,6.729,6.989,9.565a64,64,0,0,1,13.368,19.672,74.244,74.244,0,0,1-17.392-31.123c4.2,7.254,8.416,14.55,11.338,22.406.933,2.509,1.609,5.667-.257,7.587a5.624,5.624,0,0,1,3.983,1.763c-1.486,1.038-3.324-.68-4.314-2.2l-15.59-23.907c4.667,9.762,12.741,18.077,14.813,28.7a160.462,160.462,0,0,1-21.985-23.092c2.924,9.163,14.577,12.7,19,21.239-3.218.18-5.431-2.986-7.72-5.255-4.654-4.615-11.669-6.391-15.953-11.353,2.158.339,3.878,1.9,5.636,3.2a27.385,27.385,0,0,0,15.095,5.282c.2-.491-.244-.987-.643-1.334l-15.7-13.646,18.342,19.295c.2-.284-.007-.665-.206-.946l-11.86-16.734a74.63,74.63,0,0,0,14.891,12.751,65.812,65.812,0,0,0-8.93-13.444" fill="none" stroke="#142d52" stroke-linecap="round" stroke-linejoin="round" stroke-miterlimit="10" stroke-width="3"/>
        <path id="Tracé_172" data-name="Tracé 172" d="M1062.288,1852.928c1.84,2.515,4.783,3.925,7.543,5.372a99.346,99.346,0,0,1,31.582,26.147c-9.5-13.852-28.442-17.638-40.528-29.3l-4.49,6.012a4.363,4.363,0,0,0,5.85-2.928c3.449,5.943,11.086,7.679,16.7,11.638a23.446,23.446,0,0,1,9.45,14.808,209.18,209.18,0,0,0-15.417-18.115,23.943,23.943,0,0,1,13.965,13.939,32.934,32.934,0,0,1,.875,20.01q-1.9-10.023-4.362-19.928a71.875,71.875,0,0,1,10.922,12.635,53.849,53.849,0,0,0-8.051-15.945l11.277,11.7a140.322,140.322,0,0,0-14.408-14.891c.6-1.825,3.368-.716,4.718.651l19.761,20.026a96.229,96.229,0,0,0-5.525-11.893,188.7,188.7,0,0,1,8.965,26.529,35.475,35.475,0,0,1-2.348-13.9,27.526,27.526,0,0,1-.161,10.976c-.361,1.645-1.828,3.671-3.259,2.784a2.816,2.816,0,0,1-1-1.7l-8.123-27.169a87.166,87.166,0,0,0,4.3,28.117,36.166,36.166,0,0,0-1.467-20.317l7.406,21.09a50.88,50.88,0,0,0-3.505-18.564l5.157,18.342a110.536,110.536,0,0,1-16.945-23.276q1.314,18.422,1.779,36.892a134.723,134.723,0,0,1,1.216-30.249,115.557,115.557,0,0,1-2.018,20.1,54.744,54.744,0,0,1-8.418-22.459,44.017,44.017,0,0,1-7.389,31.034l10.4-26a37.725,37.725,0,0,1-20.859,22.692c12-4.913,20.126-16.019,27.614-26.6l-16.994,29.942a124.523,124.523,0,0,0,19.352-25.371,81.319,81.319,0,0,1-15.463,27.383l14.716-25.151a62.529,62.529,0,0,1-10.891,35.276c-.578-4.768,3.318-8.728,6.42-12.4a50.356,50.356,0,0,0,9.278-16.478,40.032,40.032,0,0,1-10.439,22.91l8.04-23.175a61.635,61.635,0,0,1-3.188,24.823,85.116,85.116,0,0,1,12.084-25.962c-1.262,11.486-7.606,21.707-13.943,31.369a204.091,204.091,0,0,0,14.118-23.33,37.218,37.218,0,0,1-8.7,22.673l11.878-24.28a45.218,45.218,0,0,1-7.877,24.426,204.742,204.742,0,0,1,9.687-20.348,31.011,31.011,0,0,1-3.546,11.623l1.788-13.317" fill="none" stroke="#142d52" stroke-linecap="round" stroke-linejoin="round" stroke-miterlimit="10" stroke-width="3"/>
        <path id="Tracé_173" data-name="Tracé 173" d="M951.646,1724.7c4.391,1.993,7.482,6.178,9.2,10.682s2.244,9.363,2.751,14.158l1.981,18.727c.478,4.513,1.461,9.785,5.548,11.758a7.815,7.815,0,0,0,8.55-1.615,10.606,10.606,0,0,0,2.925-8.471" fill="none" stroke="#142d52" stroke-linecap="round" stroke-linejoin="round" stroke-miterlimit="10" stroke-width="3"/>
        <path id="Tracé_174" data-name="Tracé 174" d="M1016.3,1926.367l5.9-8.7c1.517,1.524,3.918,1.554,6.064,1.691,10.665.683,21.181,6.373,31.566,3.854a37.98,37.98,0,0,0,10.389-4.784q4.316-2.594,8.512-5.376a25.261,25.261,0,0,1-10.862,6.254c-3.024.838-6.342,1.173-8.789,3.137a72.87,72.87,0,0,0,18.613-7.871c-.887,4.37-5.273,7.087-9.484,8.553-5.046,1.756-10.382,2.482-15.676,3.2.164-.538.751-.81,1.283-.994,7.02-2.436,15.525-1.018,21.3-5.694a25.663,25.663,0,0,1-14.02,9.289c-8.318,2.108-17.059-.088-25.319-2.412q-7.757-2.182-15.468-4.524c.437-.68,1.416-.667,2.218-.575,12.355,1.408,24.725,2.818,36.937,5.164-3.937,1.133-8.139.461-12.179-.218l-17.245-2.9c-3.075-.517-6.82-.789-8.712,1.69l23.542,11.757-29.147-12.269c12.807,7.38,27.353,11.364,42.012,13.269-12.352,4.233-27.384,2.386-36.406-7.052,10.062,4.028,20.422,8.117,31.261,8.18a90.028,90.028,0,0,1-25.4-5.218c-1.891-.684-4.072-1.845-4.159-3.854,16.742-3.479,33.93,1.264,50.9,3.345a164.563,164.563,0,0,1-39.545.91c-3.888-.381-8.526-1.5-9.732-5.212a261.459,261.459,0,0,1,38.533,9.554c3.733,1.233,7.51,2.565,11.44,2.686s8.127-1.18,10.495-4.319a28.053,28.053,0,0,1-9.214,1.959c-8.744.807-17.516,1.285-26.294,1.525l17.961,2.476c3.728.514,7.552,1.025,11.223.2,7.751-1.749,12.949-8.891,19.765-12.975a41.317,41.317,0,0,1-14.659,13.974,32.555,32.555,0,0,1-11.859,4.086c-6.922.86-13.945-1.021-20.264-3.976-.7-.33-1.521-.875-1.421-1.647.1-.8,1.093-1.1,1.9-1.206,8.506-1.065,17.438.23,25.462-2.788s13.95-9.958,18.42-17.28c-1.9-1.972-5.1-2.085-7.669-1.142s-4.715,2.736-7,4.247a36.306,36.306,0,0,1-24.039,5.744l30.933-19.145a8.444,8.444,0,0,1-1.708,3.644q-8.071,11.772-16.689,23.157c9.453-6.328,19.162-12.908,25.428-22.4l-19.113,21.9a7.829,7.829,0,0,1-3.384,2.659,199.3,199.3,0,0,0,15.877-26.276l-17.686,22.219a1.917,1.917,0,0,1-1.328.916c-.637.006-1.088-.6-1.427-1.137-1.57-2.5-3.156-5.731-1.551-8.2a7.848,7.848,0,0,1,3.313-2.452l10.734-5.3c-7.375,4.455-12.289,12.733-20.419,15.584a1.087,1.087,0,0,1-.054-1.587,2.883,2.883,0,0,1,1.622-.728c9.438-1.9,18.934,2.225,27.68,6.25a92.2,92.2,0,0,1-12.04,9.494,25.052,25.052,0,0,1-7.4,3.653,22.91,22.91,0,0,1-9.975-.112c-14.444-2.762-27.162-11.255-38.272-20.89a155.314,155.314,0,0,0,42.187,21.184c2.867.926,5.849,1.778,8.847,1.486a22.828,22.828,0,0,0,6.572-2c5.188-2.193,10.359-4.571,14.835-7.989s8.254-7.984,9.827-13.392a35.664,35.664,0,0,1-19.156,18.213l9.035-9.018c-6.416,3.89-12.911,7.815-20.068,10.066s-15.155,2.7-22.019-.331" fill="none" stroke="#142d52" stroke-linecap="round" stroke-linejoin="round" stroke-miterlimit="10" stroke-width="3"/>
        <path id="Tracé_175" data-name="Tracé 175" d="M1044.218,1932.117c-2.785.207-6.079.2-7.738-2.051a96.457,96.457,0,0,0,29.639,3.626,24.568,24.568,0,0,1,7.191.374c2.328.623,4.558,2.219,5.207,4.54-6.137,2.615-12.435,5.756-19.089,5.276-5.917-.427-11.209-3.671-16.235-6.824a211.539,211.539,0,0,0,46.488,6.279c-5.449-.458-10.782,1.586-16.23,2.061-6.823.6-13.593-1.279-20.186-3.135,1.686,3.527,6.145,4.526,10.01,5.106l16.1,2.42a6.925,6.925,0,0,0,3.6-.1,6.677,6.677,0,0,0,2.847-2.848,85.825,85.825,0,0,0,10.217-22.461,48.158,48.158,0,0,0-9.08,14.087c-1.006-1.472-.105-3.442.717-5.025,2.811-5.415,4.587-11.3,6.335-17.142a7.486,7.486,0,0,0,.388-4.444c-.478-1.434-2.288-2.506-3.548-1.671l.233,11.741c.018.944-.381,2.265-1.3,2.069a22.418,22.418,0,0,1,.562-15.58c.9,1.279.084,3.016-.728,4.349a102.466,102.466,0,0,1-9.914,14.36c-3.832,4.387-8.522,8.169-14.012,10.116a2.844,2.844,0,0,1-1.217.228c-1.539-.156-2.326-2.523-3.854-2.292a77.281,77.281,0,0,0,16.235-1.918c2.1-.478,4.4-1.2,5.47-3.074,1.208-2.112.356-4.758-.517-7.029-.553-1.439-1.427-3.122-2.968-3.185a4.015,4.015,0,0,0-2.3.924,15.9,15.9,0,0,0-4.081,3.48,5.393,5.393,0,0,0-.954,5.07,17.052,17.052,0,0,1,4.546-.35,45.474,45.474,0,0,1-8.305,4.474,1.414,1.414,0,0,1-1.072.131c-.871-.378-.226-1.691.485-2.32a145.193,145.193,0,0,0,23.789-26.976c2.141-3.141,4.232-6.61,4.179-10.412l-4.291,14.924c-.557-4.112-1.2-8.442-3.776-11.7" fill="none" stroke="#142d52" stroke-linecap="round" stroke-linejoin="round" stroke-miterlimit="10" stroke-width="3"/>
        <path id="Tracé_176" data-name="Tracé 176" d="M920.677,2006.327c1.415-20.418,2.329-36.066,7.656-55.827l.9-2.869a38.613,38.613,0,0,1,59.152-22.8,21.079,21.079,0,0,1,6.924,7.089,28.056,28.056,0,0,1,2.528,8.445c1.587,8.6,2.947,17.289,2.873,26.033a80.483,80.483,0,0,1-16.085,47.38" fill="#fff" stroke="#142d52" stroke-linecap="round" stroke-linejoin="round" stroke-miterlimit="10" stroke-width="3"/>
        <path id="Tracé_177" data-name="Tracé 177" d="M932.936,2005.132a260.941,260.941,0,0,0-15.3-64.627c-2.107-5.593-4.67-11.445-9.653-14.745-3.237-2.144-7.148-2.962-10.961-3.7-9.082-1.747-18.8-3.2-27.318.413-13.155,5.577-18.97,21.9-16.985,36.048s9.959,26.639,17.739,38.624l6.937,10.686" fill="#fff" stroke="#142d52" stroke-linecap="round" stroke-linejoin="round" stroke-miterlimit="10" stroke-width="3"/>
        <path id="Tracé_178" data-name="Tracé 178" d="M1015.584,1929.057c-.57,6.391-1.15,12.831-2.973,18.983s-5,12.069-9.967,16.129a32.979,32.979,0,0,1-.044-5.71c-.015-7.14-4.217-14.049-2.948-21.075" fill="none" stroke="#142d52" stroke-linecap="round" stroke-linejoin="round" stroke-miterlimit="10" stroke-width="3"/>
        <g id="Groupe_59" data-name="Groupe 59" transform="translate(72 -74)">
            <path id="Tracé_179" data-name="Tracé 179" d="M723.414,1592.7a133.551,133.551,0,0,1-24.288,5.185,4.056,4.056,0,0,1-5.1-3.054,111.412,111.412,0,0,1-8.624-26.16c-.416-2.112-.763-4.346-.06-6.381.936-2.706,3.5-4.461,5.935-5.964a191.068,191.068,0,0,1,37.684-17.9c6.026-2.09,12.243-3.893,18.619-4.07,3.02-.084,6.3.308,8.494,2.388a13.4,13.4,0,0,1,2.622,4.107q5.1,10.731,9.469,21.79a6.884,6.884,0,0,1,.7,3.682c-.376,2.05-2.429,3.282-4.277,4.248L747.6,1579.45a12.1,12.1,0,0,0-4.554,3.392c-1.168,1.662-1.417,3.779-1.631,5.8l-2.359,22.252a153.525,153.525,0,0,1-15.669-19.949" fill="none" stroke="#142d52" stroke-linecap="round" stroke-linejoin="round" stroke-miterlimit="10" stroke-width="3"/>
            <path id="Tracé_180" data-name="Tracé 180" d="M721.085,1562.878a9.717,9.717,0,0,0-16.483-2.991,6.132,6.132,0,0,0-1.523,3.047,8.919,8.919,0,0,0,.5,3.661h0a13.491,13.491,0,0,0,7.811,8.765,42.033,42.033,0,0,1,3.912,1.963l8.966,4.924a4.888,4.888,0,0,0,2.876.866,4.372,4.372,0,0,0,2.183-1.19c5.872-5.081,8.37-12.934,10.606-20.37a18.623,18.623,0,0,0,1-4.875c.072-3.17-1.46-6.129-2.953-8.928a1.837,1.837,0,0,0-.741-.873,1.715,1.715,0,0,0-.7-.118,14.166,14.166,0,0,0-13.959,17.821" fill="none" stroke="#142d52" stroke-linecap="round" stroke-linejoin="round" stroke-miterlimit="10" stroke-width="3"/>
            <path id="Tracé_181" data-name="Tracé 181" d="M717.054,1570.3" fill="none" stroke="#142d52" stroke-linecap="round" stroke-miterlimit="10" stroke-width="3"/>
            <path id="Tracé_182" data-name="Tracé 182" d="M717.969,1570.58a32.909,32.909,0,0,0-6.672-5.059,50.323,50.323,0,0,0,11.607,4.9,86.245,86.245,0,0,0-10.433-11.064c-.839-.745-1.9-1.525-2.978-1.213a2.634,2.634,0,0,0-1.609,2.283c-.452,3.263,2.138,6.089,4.608,8.267a121.75,121.75,0,0,0,15.8,11.8l8.812-24.631c.449-1.256.88-2.723.175-3.855a3.05,3.05,0,0,0-3.907-.74,8.407,8.407,0,0,0-2.96,3.143,101.905,101.905,0,0,0-6.7,12.095c-1.862,3.976-3.5,8.263-3.117,12.636,3.814-1.879,5.8-6.072,7.517-9.963l7.526-17.108A19.5,19.5,0,0,0,727.7,1561c-.91,2.081-1.454,4.321-2.533,6.32a5.018,5.018,0,0,0-.773,1.927,1.379,1.379,0,0,0,1.086,1.536,75.211,75.211,0,0,0,1.984-13.73,7.8,7.8,0,0,1,.655-3.368,2.5,2.5,0,0,1,2.867-1.36c1.273.475,1.579,2.1,1.688,3.46l.48,5.924a9.449,9.449,0,0,0,1.076,4.362,3.24,3.24,0,0,0,3.877,1.476l-8.04,2.938a9.834,9.834,0,0,0-3.746,2.03,15.465,15.465,0,0,1-2.237,2.454c-1.6,1.036-3.724.339-5.46-.456a66.08,66.08,0,0,1-15.374-9.811" fill="none" stroke="#142d52" stroke-linecap="round" stroke-linejoin="round" stroke-miterlimit="10" stroke-width="3"/>
            <path id="Tracé_183" data-name="Tracé 183" d="M708.572,1560.127l8.728,8.605" fill="none" stroke="#142d52" stroke-linecap="round" stroke-miterlimit="10" stroke-width="3"/>
        </g>
        <g id="Groupe_61" data-name="Groupe 61" transform="translate(-85 54)">
            <path id="Tracé_187" data-name="Tracé 187" d="M1073.187,1450.514l3.061,17.681a16.472,16.472,0,0,0,1.741,5.747c1.848,3.086,5.439,4.6,8.813,5.843a41.041,41.041,0,0,0,10.287,2.745c-10.24-.658-18.727,6.1-22.184,15.758a50.618,50.618,0,0,0-2.6,16.712c-.095-4.1-1.222-8.581-1.317-12.677-.051-2.2-1-4.425-1.585-6.545a15.892,15.892,0,0,0-7.6-10.057,37.579,37.579,0,0,0-12.868-3.887c4.652-.847,9.33-2.212,13.133-5.021a25.262,25.262,0,0,0,8.39-11.885,52.618,52.618,0,0,0,2.635-14.473" fill="none" stroke="#142d52" stroke-linecap="round" stroke-linejoin="round" stroke-miterlimit="10" stroke-width="3"/>
            <path id="Tracé_188" data-name="Tracé 188" d="M1044.146,1450.482l1.429,8.248a7.692,7.692,0,0,0,.811,2.681c.863,1.44,2.538,2.144,4.111,2.726a19.19,19.19,0,0,0,4.8,1.28c-4.777-.307-8.736,2.844-10.348,7.351a23.591,23.591,0,0,0-1.213,7.8c-.045-1.91-.57-4-.615-5.913a13.108,13.108,0,0,0-.739-3.053,7.417,7.417,0,0,0-3.546-4.692,17.517,17.517,0,0,0-6-1.812,14.581,14.581,0,0,0,6.126-2.343,11.786,11.786,0,0,0,3.914-5.544,24.561,24.561,0,0,0,1.229-6.751" fill="none" stroke="#142d52" stroke-linecap="round" stroke-linejoin="round" stroke-miterlimit="10" stroke-width="3"/>
            <path id="Tracé_189" data-name="Tracé 189" d="M1051.3,1488.043l1.088,6.288a5.872,5.872,0,0,0,.619,2.043,5.732,5.732,0,0,0,3.134,2.078,14.6,14.6,0,0,0,3.658.976,7.933,7.933,0,0,0-7.888,5.6,17.973,17.973,0,0,0-.925,5.943c-.034-1.457-.435-3.051-.469-4.508a10.036,10.036,0,0,0-.563-2.328,5.656,5.656,0,0,0-2.7-3.576,13.37,13.37,0,0,0-4.576-1.382,11.122,11.122,0,0,0,4.67-1.786,8.98,8.98,0,0,0,2.984-4.226,18.742,18.742,0,0,0,.937-5.147" fill="none" stroke="#142d52" stroke-linecap="round" stroke-linejoin="round" stroke-miterlimit="10" stroke-width="3"/>
        </g>
    </g>
</svg>