<svg xmlns="http://www.w3.org/2000/svg" xmlns:xlink="http://www.w3.org/1999/xlink" width="57.817" height="44.737" viewBox="0 0 57.817 44.737">
    <defs>
        <linearGradient id="linear-gradient" x1="0.5" x2="0.5" y2="1" gradientUnits="objectBoundingBox">
            <stop offset="0" stop-color="#ff0036"/>
            <stop offset="0.562" stop-color="#ff0241"/>
            <stop offset="1" stop-color="#ff2efd"/>
        </linearGradient>
    </defs>
    <g id="Groupe_166" data-name="Groupe 166" transform="translate(-255.729 2765.391)">
        <path id="Tracé_214" data-name="Tracé 214" d="M308.863-2760.126l-.07-.057a24.454,24.454,0,0,0-5.4-3.442,18.388,18.388,0,0,0-7.913-1.631,12.467,12.467,0,0,0-10.805,6.21,12.478,12.478,0,0,0-10.88-6.344,18.388,18.388,0,0,0-7.913,1.631,24.452,24.452,0,0,0-5.4,3.442l-.07.057c-4.113,3.408-6.92,13.842-2.279,19.425,3.231,3.886,26.219,19.849,26.5,20.045v.137s23.255-16.138,26.506-20.048C315.784-2746.285,312.976-2756.717,308.863-2760.126Z" transform="translate(0 0)" fill="url(#linear-gradient)"/>
        <g id="Groupe_88" data-name="Groupe 88" transform="translate(301.82 -2758.978)">
            <path id="Tracé_215" data-name="Tracé 215" d="M323.617-2754.3a6.758,6.758,0,0,1,3.65,2.289,6.921,6.921,0,0,1,1.032,1.751,2.188,2.188,0,0,1,.218,1.121c-.026.13-.051.142-.146.223.06-.052-.139.032-.034.012.049-.011.2.047,0-.011l.625.625a15.454,15.454,0,0,0-1.73-4.334c-.715-1.212-1.716-2.844-3.24-3.065a.924.924,0,0,0-1.1.624.9.9,0,0,0,.625,1.1,1.938,1.938,0,0,1,1.247.869,12.36,12.36,0,0,1,1.048,1.588,13.774,13.774,0,0,1,1.425,3.693.893.893,0,0,0,.625.625,2.057,2.057,0,0,0,2.459-2.194,6.2,6.2,0,0,0-1.2-3.131,8.6,8.6,0,0,0-5.022-3.511c-1.119-.271-1.6,1.455-.476,1.725Z" transform="translate(-322.862 2756.05)" fill="#fff"/>
        </g>
        <g id="Groupe_89" data-name="Groupe 89" transform="translate(307.068 -2747.1)">
            <path id="Tracé_216" data-name="Tracé 216" d="M330.626-2736.633c.056.082.118.162.183.238a.722.722,0,0,0,.065.065,1.583,1.583,0,0,0,.316.23,2.839,2.839,0,0,0,.279.119.724.724,0,0,0,.088.027,1.8,1.8,0,0,0,.2.031,2.025,2.025,0,0,0,.2.022c.028,0,.056,0,.085,0a2.558,2.558,0,0,0,.314-.045.6.6,0,0,0,.081-.024,2.151,2.151,0,0,0,.285-.122.8.8,0,0,0,.072-.044,2.22,2.22,0,0,0,.241-.19c.02-.02.038-.042.056-.063a2.393,2.393,0,0,0,.185-.244c.014-.025.027-.05.039-.075a2.65,2.65,0,0,0,.118-.287,1.834,1.834,0,0,0,.065-.4,1.66,1.66,0,0,0-.036-.407,1.518,1.518,0,0,0-.135-.37.622.622,0,0,0-.039-.075l-.023-.036a1.93,1.93,0,0,0-.144-.186l-.181-.141-.214-.09a1.487,1.487,0,0,0-.3-.044.851.851,0,0,0-.189.016,1.094,1.094,0,0,0-.181.031,1.706,1.706,0,0,0-.272.115.491.491,0,0,0-.059.039,1.842,1.842,0,0,0-.23.184,1.976,1.976,0,0,0-.186.237.531.531,0,0,0-.044.074,2.153,2.153,0,0,0-.117.28,1.165,1.165,0,0,0-.033.194,1.024,1.024,0,0,0-.019.195,2.336,2.336,0,0,0,.035.267c0,.013,0,.026.008.039s.008.025.013.038a1.9,1.9,0,0,0,.1.24.312.312,0,0,0,.022.035,2.168,2.168,0,0,0,.163.21.665.665,0,0,0,.288.184.672.672,0,0,0,.345.078.675.675,0,0,0,.345-.078.667.667,0,0,0,.288-.184.9.9,0,0,0,.262-.633l-.032-.238a.885.885,0,0,0-.23-.394l-.016-.019.139.181a.433.433,0,0,1-.042-.07l.09.213a.381.381,0,0,1-.021-.078l.032.239a.412.412,0,0,1,0-.1l-.032.238a.489.489,0,0,1,.032-.115l-.091.213a.617.617,0,0,1,.067-.115l-.14.182a.537.537,0,0,1,.084-.086l-.181.139a.5.5,0,0,1,.09-.053l-.214.09a.394.394,0,0,1,.089-.024l-.238.032a.339.339,0,0,1,.082,0l-.238-.032a.27.27,0,0,1,.047.011l-.534-.412a.646.646,0,0,1,.069.123l-.091-.214a.668.668,0,0,1,.043.163l-.032-.237a.822.822,0,0,1,0,.183l.032-.237a.777.777,0,0,1-.051.192l.09-.214a.7.7,0,0,1-.085.146l.14-.181a.647.647,0,0,1-.11.11l.181-.14a.63.63,0,0,1-.135.078l.214-.091a.739.739,0,0,1-.163.043l.238-.032a.786.786,0,0,1-.184,0l.238.032a.765.765,0,0,1-.192-.053l.214.092a.784.784,0,0,1-.146-.086l.181.14a.709.709,0,0,1-.11-.11l.14.181c-.009-.011-.017-.022-.025-.034a.669.669,0,0,0-.231-.251.669.669,0,0,0-.3-.16.676.676,0,0,0-.357-.016.662.662,0,0,0-.332.106.9.9,0,0,0-.411.534.893.893,0,0,0,.09.69Z" transform="translate(-330.507 2738.75)" fill="#fff"/>
        </g>
    </g>
</svg>