<svg xmlns="http://www.w3.org/2000/svg" xmlns:xlink="http://www.w3.org/1999/xlink" width="51.372" height="44.824" viewBox="0 0 51.372 44.824">
    <defs>
        <linearGradient id="linear-gradient" x1="0.245" y1="0.031" x2="0.841" y2="0.842" gradientUnits="objectBoundingBox">
            <stop offset="0.212" stop-color="#ff0036"/>
            <stop offset="0.335" stop-color="#ff0239"/>
            <stop offset="0.428" stop-color="#ff0c42"/>
            <stop offset="0.511" stop-color="#ff1c52"/>
            <stop offset="0.589" stop-color="#ff3269"/>
            <stop offset="0.663" stop-color="#ff4f87"/>
            <stop offset="0.733" stop-color="#ff72ac"/>
            <stop offset="0.8" stop-color="#ff9bd6"/>
            <stop offset="0.845" stop-color="#ffbbf7"/>
        </linearGradient>
    </defs>
    <g id="Groupe_164" data-name="Groupe 164" transform="translate(-241.159 -442.689) rotate(21)">
        <path id="Tracé_202" data-name="Tracé 202" d="M434.865,328.661c-1.142-.9-2.324-1.783-3.592-2.606a22.051,22.051,0,0,0-4.734-2.341,15.4,15.4,0,0,0-3.936-.866,11.57,11.57,0,0,0-5.028.748,7.857,7.857,0,0,0-5.059,6.116,7.858,7.858,0,0,0-7.812-1.4,11.563,11.563,0,0,0-4.323,2.675,15.4,15.4,0,0,0-2.447,3.2,22.064,22.064,0,0,0-2.1,4.844c-.437,1.447-.771,2.883-1.06,4.309-.219,1.078-.43,3.2-.43,3.2l.858.734c7.526,6.439,16.191,9.051,25.805,5.458a25.839,25.839,0,0,0,11.787-8.749,20.808,20.808,0,0,0,3-6.286c.285-.941,1.531-5.58,1.463-6.866C437.256,330.825,435.728,329.343,434.865,328.661Z" transform="translate(0 0)" fill="url(#linear-gradient)"/>
        <path id="Tracé_203" data-name="Tracé 203" d="M474.946,354.241a33.705,33.705,0,0,1-3.177,5.87,11.313,11.313,0,0,1-5.131,4.131,5.015,5.015,0,0,1,1.893-2.592,33.2,33.2,0,0,0,6.724-7.565,29.057,29.057,0,0,0-4.269,6.306,10.134,10.134,0,0,1-.834,1.683,2.331,2.331,0,0,1-1.5,1.048,20.441,20.441,0,0,1,1.9-2.669l-1.83,2.162a3.485,3.485,0,0,1-1.684,1.3" transform="translate(-42.102 -18.211)" fill="none" stroke="#fff" stroke-linecap="round" stroke-linejoin="round" stroke-miterlimit="10" stroke-width="0.794"/>
        <path id="Tracé_204" data-name="Tracé 204" d="M455.763,379.882l-1.821.65c-.17.061-.35.308-.179.366l2.115-.855a1.644,1.644,0,0,0,.638-.379.564.564,0,0,0,.083-.686l-3.387,1.852A6.068,6.068,0,0,1,455.3,379.8a.993.993,0,0,0,.576-.292c.13-.177.042-.506-.177-.5" transform="translate(-34.284 -32.707)" fill="none" stroke="#fff" stroke-linecap="round" stroke-linejoin="round" stroke-miterlimit="10" stroke-width="0.794"/>
        <path id="Tracé_205" data-name="Tracé 205" d="M447.012,332.62a7.566,7.566,0,0,1,4.708-3.725,1.916,1.916,0,0,1,1.6.243l-1.983.615a6.655,6.655,0,0,0-1.57.638c-.965.6-1.594,1.673-2.623,2.155" transform="translate(-30.673 -3.505)" fill="none" stroke="#fff" stroke-linecap="round" stroke-linejoin="round" stroke-miterlimit="10" stroke-width="0.794"/>
        <path id="Tracé_206" data-name="Tracé 206" d="M413.555,342.538a13.358,13.358,0,0,1,6.025-.894c-.229.656-1.142.64-1.833.572a9.872,9.872,0,0,0-4.858.758c.918.415,1.956-.1,2.9-.444a8.355,8.355,0,0,1,3.925-.419" transform="translate(-10.803 -10.94)" fill="none" stroke="#fff" stroke-linecap="round" stroke-linejoin="round" stroke-miterlimit="10" stroke-width="0.794"/>
        <path id="Tracé_207" data-name="Tracé 207" d="M428.768,359.747a10.1,10.1,0,0,0,3.12-2.846,4.535,4.535,0,0,0,5.559-2.216,6.935,6.935,0,0,0,4.444-.1c-1.711.945-4.864,3.06-5.292,4.2a7.272,7.272,0,0,0-.261,2.032A3.028,3.028,0,0,0,435,359.557c-1.3-.728-5.316.118-6.152.208" transform="translate(-20.049 -18.504)" fill="#142d52" stroke="#142d52" stroke-linecap="round" stroke-miterlimit="10" stroke-width="1"/>
        <path id="Tracé_209" data-name="Tracé 209" d="M450.106,346.531a14.743,14.743,0,0,1-.661,2.255l-.741,2.106" transform="translate(-31.658 -13.812)" fill="none" stroke="#142d52" stroke-linecap="round" stroke-miterlimit="10" stroke-width="1"/>
        <path id="Tracé_210" data-name="Tracé 210" d="M428.485,355.545l.727.378a33.377,33.377,0,0,1,3.167,1.793" transform="translate(-19.885 -19.061)" fill="none" stroke="#142d52" stroke-linecap="round" stroke-miterlimit="10" stroke-width="1"/>
        <path id="Tracé_211" data-name="Tracé 211" d="M459.151,346.957l5.828-2.627c1.235-.557,6.5-1.6,7.359-3.293" transform="translate(-37.742 -10.613)" fill="none" stroke="#142d52" stroke-linecap="round" stroke-miterlimit="10" stroke-width="1"/>
        <path id="Tracé_212" data-name="Tracé 212" d="M411.271,366.251c-2.3.637-4.555,1.456-6.8,2.252-2.314.818-5.008,2.334-7.5,2.146" transform="translate(-1.531 -25.296)" fill="none" stroke="#142d52" stroke-linecap="round" stroke-miterlimit="10" stroke-width="1"/>
    </g>
</svg>