<svg xmlns="http://www.w3.org/2000/svg" width="36.655" height="36.655" viewBox="0 0 36.655 36.655">
    <g id="Groupe_165" data-name="Groupe 165" transform="translate(1.75 1.75)">
        <g id="Groupe_29" data-name="Groupe 29" transform="translate(0 0)">
            <path id="Tracé_17" data-name="Tracé 17" d="M-219.818,936.15a34.905,34.905,0,0,1,34.905-34.905" transform="translate(219.818 -901.245)" fill="none" stroke="#ff0036" stroke-miterlimit="10" stroke-width="3.5"/>
            <path id="Tracé_18" data-name="Tracé 18" d="M-213.35,935.821a28.108,28.108,0,0,1,28.108-28.108" transform="translate(220.148 -900.915)" fill="none" stroke="#ff2efd" stroke-miterlimit="10" stroke-width="3.5"/>
            <path id="Tracé_19" data-name="Tracé 19" d="M-216.584,935.986a31.506,31.506,0,0,1,31.507-31.507" transform="translate(219.983 -901.08)" fill="none" stroke="#ff5552" stroke-miterlimit="10" stroke-width="3.5"/>
            <path id="Tracé_20" data-name="Tracé 20" d="M-203.649,935.327a17.912,17.912,0,0,1,17.912-17.913" transform="translate(220.642 -900.421)" fill="none" stroke="#0cf" stroke-miterlimit="10" stroke-width="3.5"/>
            <path id="Tracé_21" data-name="Tracé 21" d="M-200.416,935.162A14.514,14.514,0,0,1-185.9,920.647" transform="translate(220.807 -900.257)" fill="none" stroke="#142d52" stroke-miterlimit="10" stroke-width="3.5"/>
            <path id="Tracé_22" data-name="Tracé 22" d="M-206.883,935.491a21.311,21.311,0,0,1,21.311-21.311" transform="translate(220.477 -900.586)" fill="none" stroke="#ffeac3" stroke-miterlimit="10" stroke-width="3.5"/>
            <path id="Tracé_23" data-name="Tracé 23" d="M-210.117,935.656a24.711,24.711,0,0,1,24.71-24.71" transform="translate(220.312 -900.751)" fill="none" stroke="#ffbbf7" stroke-miterlimit="10" stroke-width="3.5"/>
        </g>
    </g>
</svg>