<svg id="Groupe_19" data-name="Groupe 19" xmlns="http://www.w3.org/2000/svg" xmlns:xlink="http://www.w3.org/1999/xlink" width="70.808" height="48.038" viewBox="0 0 70.808 48.038">
    <defs>
        <radialGradient id="radial-gradient" cx="0.5" cy="0.5" r="0.668" gradientTransform="translate(0.188) scale(0.624 1)" gradientUnits="objectBoundingBox">
            <stop offset="0.212" stop-color="#ffbbf7"/>
            <stop offset="0.335" stop-color="#ffb8f3"/>
            <stop offset="0.458" stop-color="#ffb1e7"/>
            <stop offset="0.581" stop-color="#ffa4d3"/>
            <stop offset="0.704" stop-color="#ff93b7"/>
            <stop offset="0.826" stop-color="#ff7d92"/>
            <stop offset="0.947" stop-color="#ff6267"/>
            <stop offset="1" stop-color="#ff5552"/>
        </radialGradient>
    </defs>
    <path id="Tracé_3" data-name="Tracé 3" d="M679.148,420.514v0s-1.417-2.932-2.3-4.366c-1.166-1.9-2.4-3.784-3.791-5.635a33.786,33.786,0,0,0-5.572-5.854,23.558,23.558,0,0,0-5.2-3.314,17.7,17.7,0,0,0-7.619-1.571,12.022,12.022,0,0,0-10.487,6.128,12.022,12.022,0,0,0-10.487-6.128,17.7,17.7,0,0,0-7.619,1.571,23.557,23.557,0,0,0-5.2,3.314,33.786,33.786,0,0,0-5.572,5.854c-1.389,1.851-2.624,3.738-3.791,5.635-.883,1.434-2.3,4.366-2.3,4.366v0l0,0h0v0h0l0,0h0l0,0v0l0,0v0l0,0h0l0,0h0l0,0v0l0,0v0l0,0h0l0,0h0l0,0v0l0,0v0l0,0h0l0,0h0l0,0h0l0,0v0l0,0h0l0,0h0l0,0h0l0,0h0l0,0h0l0,0h0l0,0h0l0,0v0l0,0h0l0,0h0l0,0h0l0,0h0l0,0v0l0,0h0l0,0h0l0,0h0l0,0v0l0,0h0l0,0h0l0,0h0l0,0h0l0,0h0l0,0h0l0,0h0l0,0v0l0,0h0l0,0h0l0,0h0l0,0h0l0,0h0l0,0h0l0,0h0l0,0h0l0,0h0l0,0h0l0,0h0l0,0h0l0,0h0l0,0h0l0,0h0l0,0h0l0,0h0l0,0h0l0,0h0l0,0h0l0,0h0l0,0h0l0,0h0l0,0h0l0,0h0l0,0h0l0,0h0l0,0h0l0,0h0l0,0h0l0,0h0l0,0h0l0,0h0l0,0h0l0,0h0l0,0h0l0,0h0l0,0h0l0,0h0l0,0h0l0,0h0l0,0h0l0,0v0l0,0h0l0,0h0l0,0h0l0,0v0l0,0h0l0,0h0l0,0h0l0,0h0l0,0h0l0,0h0l0,0h0l0,0h0l0,0h0l0,0h0l0,0h0l0,0h0l0,0v0l0,0h0l0,0h0l0,0h0l0,0v0l0,0h0l0,0h0l0,0h0l0,0v0l0,0v0l0,0h0l0,0h0l0,0v0l0,0v0l0,0h0l0,0h0l0,0h0l0,0v0l0,0v0l0,0h0l0,0h0l0,0v0l0,0h0l0,0h0l0,0h0l0,0v0l0,0v0l0,0h0l0,0h0l0,0v0l0,0v0l0,0h0l0,0h0l0,0v0l0,0v0l0,0v0l0,0h0l0,0v0l0,0v0l0,0v0l0,0h0l0,0h0l0,0v0l0,0v0l0,0v0l0,0h0l0,0v0l0,0v0l0,0v0l0,0h0l0,0v0l0,0v0l0,0v0l0,0h0l0,0v0l0,0v0l0,0v0l0,0h0l0,0h0l0,0v0l0,0v0l0,0v0l0,0v0l0,0v0l0,0v0l0,0v0l0,0h0l0,0v0l0,0v0l0,0v0l0,0h0l0,0v0l0,0v0l0,0v0l0,0v0l0,0h0l0,0v0l0,0v0l0,0v0l0,0h0l0,0v0l0,0v0l0,0v0l0,0h0l0,0h0l0,0v0l0,0v0l0,0h0l0,0h0l0,0v0l0,0v0l0,0h0l0,0h0l0,0h0l0,0v0l0,0h0l0,0h0l0,0v0l0,0v0l0,0v0l0,0h0l0,0h0l0,0v0l0,0v0l0,0h0l0,0h0l0,0v0l0,0v0l0,0h0l0,0h0l0,0h0l0,0v0l0,0h0l0,0h0l0,0v0l0,0v0l0,0h0l0,0h0l0,0h0l0,0v0l0,0h0l0,0h0l0,0h0l0,0h0l0,0v0l0,0h0l0,0h0l0,0h0l0,0v0l0,0h0l0,0h0l0,0h0l0,0v0l0,0h0l0,0h0l0,0h0l0,0h0l0,0h0l0,0h0l0,0h0l0,0h0l0,0h0l0,0h0l0,0h0l0,0h0l0,0h0l0,0h0l0,0h0l0,0h0l0,0v0l0,0h0l0,0h0l0,0h0l0,0h0l0,0h0l0,0h0l0,0h0l0,0h0l0,0h0l0,0h0l0,0h0l0,0h0l0,0h0l0,0h0l0,0h0l0,0h0l0,0h0l0,0h0l0,0h0l0,0h0l0,0h0l0,0h0l0,0h0l0,0h0l0,0h0l0,0h0l0,0h0l0,0h0l0,0h0l0,0h0l0,0h0l0,0h0l0,0h0l0,0v0l0,0h0l0,0h0l0,0h0l0,0h0l0,0h0l0,0h0l0,0h0l0,0h0l0,0v0l0,0h0l0,0h0l0,0h0l0,0h0l0,0h0l0,0h0l0,0h0l0,0v0l0,0h0l0,0h0l0,0h0l0,0v0l0,0h0l0,0h0l0,0h0l0,0v0l0,0v0l0,0h0l0,0h0l0,0h0l0,0v0l0,0h0l0,0h0l0,0h0l0,0v0l0,0v0l0,0h0l0,0h0l0,0v0l0,0v0l0,0h0l0,0h0l0,0v0l0,0v0l0,0h0l0,0h0l0,0v0l0,0v0l0,0h0l0,0h0l0,0v0l0,0v0l0,0v0l0,0h0l0,0h0l0,0v0l0,0v0l0,0h0l0,0h0l0,0v0l0,0v0l0,0v0l0,0h0l0,0v0l0,0v0l0,0v0l0,0h0l0,0v0l0,0v0l0,0v0l0,0v0l0,0v0l0,0v0l0,0v0l0,0h0l0,0h0l0,0v0l0,0v0l0,0v0l0,0h0l0,0v0l0,0v0l0,0v0l0,0h0l0,0h0l0,0v0l0,0v0l0,0v0l0,0v0l0,0v0l0,0v0l0,0v0l0,0h0l0,0v0l0,0v0l0,0v0l0,0h0l0,0v0l0,0v0l0,0v0l0,0h0l0,0h0l0,0v0l0,0v0l0,0h0l0,0h0l0,0v0l0,0v0l0,0v0l0,0h0l0,0v0l0,0v0l0,0v0l0,0h0l0,0h0l0,0v0l0,0v0l0,0h0l0,0h0l0,0v0l0,0v0l0,0h0l0,0h0l0,0v0l0,0v0l0,0h0l0,0h0l0,0h0l0,0v0l0,0h0l0,0h0l0,0h0l0,0v0l0,0v0l0,0h0l0,0h0l0,0h0l0,0v0l0,0h0l0,0h0l0,0v0l0,0v0l0,0h0l0,0h0l0,0h0l0,0v0l0,0h0l0,0h0l0,0h0l0,0v0l0,0h0l0,0h0l0,0h0l0,0h0l0,0h0l0,0h0l0,0h0l0,0h0l0,0v0l0,0h0l0,0h0l0,0h0l0,0h0l0,0h0l0,0h0l0,0h0l0,0h0l0,0h0l0,0h0l0,0h0l0,0h0l0,0h0l0,0h0l0,0h0l0,0h0l0,0h0l0,0h0l0,0h0l0,0h0l0,0h0l0,0h0l0,0h0l0,0h0l0,0h0l0,0h0l0,0h0l0,0h0l0,0h0l0,0h0l0,0h0l0,0h0l0,0h0l0,0h0l0,0h0l0,0h0l0,0h0l0,0h0l0,0h0l0,0h0l0,0h0l0,0h0l0,0h0l0,0h0l0,0h0l0,0h0l0,0h0l0,0h0l0,0h0l0,0h0l0,0v0l0,0h0l0,0h0l0,0h0l0,0v0l0,0h0l0,0h0l0,0h0l0,0v0l0,0v0l0,0h0l0,0h0l0,0v0l0,0h0l0,0h0l0,0h0l0,0h0l0,0v0l0,0h0l0,0h0l0,0h0l0,0v0l0,0h0l0,0h0l0,0h0l0,0v0l0,0v0l0,0h0l0,0h0l0,0v0l0,0v0l0,0h0l0,0h0l0,0v0l0,0v0l0,0v0l0,0h0l0,0v0l0,0v0l0,0v0l0,0h0l0,0h0l0,0v0l0,0v0l0,0h0l0,0h0l0,0v0l0,0v0l0,0h0l0,0h0l0,0v0l0,0v0l0,0v0l0,0h0l0,0v0l0,0v0l0,0v0l0,0h0l0,0v0l0,0v0l0,0v0l0,0v0l0,0v0l0,0v0l0,0v0l0,0v0l0,0h0l0,0v0l0,0v0l0,0v0l0,0v0l0,0v0l0,0v0l0,0v0l0,0h0l0,0v0l0,0v0l0,0v0l0,0v0l0,0h0l0,0v0l0,0v0l0,0v0l0,0h0l0,0v0l0,0v0l0,0v0l0,0h0l0,0v0l0,0v0l0,0v0l0,0h0l0,0h0l0,0v0l0,0v0l0,0v0l0,0h0l0,0v0l0,0v0l0,0v0l0,0h0l0,0h0l0,0v0l0,0v0l0,0h0l0,0v0l0,0v0l0,0v0l0,0h0l0,0h0l0,0v0l0,0v0h0l0,0h0l0,0v0l0,0v0l0,0h0l0,0h0l0,0h0l0,0v0l0,0v0l0,0h0l0,0h0v.005l0,0v0l0,0h0l0,0h0l0,0h0l0,0v0l0,0h0l0,0h0l0,0h0l0,0v0h0v0h0l0,0h0l0,0h0l0,0h0l0,0h0l0,0h0l0,0v0l0,0h0l0,0h0l0,0h0v0h0v0h0l0,0h0l0,0h0l0,0h0l0,0v0l0,0h0l0,0h0l0,0h0l0,0h0v0h0v0h0l0,0h0l0,0h0l0,0h0l0,0h0l0,0h0l0,0h0l0,0h0l0,0h0l0,0h0v0h0v0h0l0,0h0l0,0h0l0,0h0l0,0h0l0,0h0l0,0h0l0,0h0l0,0h0v0h0v0h0v0h0l0,0h0l0,0h0v0h0l0,0h0l0,0h0l0,0v0l0,0h0v0h0v0h0v0h0v0h0l0,0h0l0,0h0v0h0l0,0h0l0,0h0l0,0h0l0,0h0v0h0v0h0v0h0v0h0l0,0v.005h0v0h0l0,0h0l0,0v0l0,0h0v0h0v0h0v.012h0v0h0v0h0v0l0,0h0l0,0h0l0,0h0v.008h0v0h0v0h0v.008h0v0h0l0,0h0l0,0v0l0,0v.005h0v0h0v.012h0v0h0v.009l0,0v0l0,0h0v0h0v.012h0v0h0v.017h0l0,0v0l0,0v.005h0v0h0v.017h0v.013l0,0h0v.021h0v.017h0v0h0l0,0v.031h0v.017h0v.017h0v.017h0v.021h0v.017h0v.017h0v0h0V424h0v0h0v.012h0v0h0v0h0v.008h0v0h0v.017h0v0h0v0h0v.008h0v0h0v.012h0v0h0v0h0v.008h0v0h0v0h0v.008h0v0h0v0h0v0h0v0h0v0h0v0h0v0h0v.008h0v0h0v0h0v.008h0v0h0v0h0v0h0v0h0v0h0v0h0v0h0l0,0h0v0h0v0h0v0h0v0h0v0h0v0h0v0h0v0h0v0h0l0,0h0l0,0h0v0h0v0h0v0h0v0h0v0h0v0h0v0h0v0h0v0h0l0,0h0l0,0h0v0h0v0h0v0h0v0h0v0h0v0h0v0h0v0h0l0,0h0l0,0h0l0,0h0v0h0v0h0v0h0v0h0v.008h0v0h0v0h0l0,0h0l0,0h0v0h0v0h0v.008h0v0h0v0h0v.008h0l0,0h0l0,0h0l0,0h0v.008h0l0,0h0v0h0v.008h0v0h0v0h0l0,0v0l0,0v0l0,0h0v0h0v0l0,0h0v0h0v0h0v.009l0,0h0l0,0h0v0l0,0v.005h0l0,0h0l0,0h0v.012h0l0,0h0l0,0v0l0,0v0l0,0h0v0h0v0l0,0v0l0,0v.005h0v.009l0,0v0l0,0h0l0,0v0l0,0v0l0,0v0l0,0v0l0,0v0l0,0v.01h0l0,0h0l0,0v0l0,0v0l0,0v0l0,0h0l0,0v0l0,0v0l0,0v.005h0v.009l0,0v0l0,0v0l0,0h0l0,0v0l0,0v0l0,0v0l0,0h0l0,0v.01l0,0h0l0,0v0l0,0v0l0,0v0l0,0h0l0,0h0l0,0v0l0,0v0l0,0v.006l0,0v0l0,0v0l0,0v0l0,0h0l0,0h0l0,0v0l0,0v0l0,0h0v.005l0,0v.006l0,0h0l0,0h0l0,0v0l0,0v0l0,0h0l0,0h0l0,0v0l0,0,.847,1.506c7.428,13.211,18.505,21.523,34.211,21.417a39.551,39.551,0,0,0,21.538-6.373,31.834,31.834,0,0,0,7.624-7.452c.9-1.2,5.135-7.214,5.714-9.1h0v0h0v0h0v0h0v0h0v0h0v0h0v0h0v0h0v0h0v0h0v0h0v0h0v0h0v0h0v0h0v0h0v0h0v0h0v0h0v0h0v0h0v0h0v0h0v0h0v0h0v0h0v0h0v0h0v0h0v0h0v0h0v0h0v0h0v0h0v0h0v0h0v0h0v0h0v0h0v0h0v0h0v0h0v0h0v0h0v-.008h0v0h0v0h0v0h0v-.009h0v0h0v0h0v0h0v0h0v0h0v0h0v0h0v0h0v0h0v0h0v0h0v0h0v0h0v0h0l0,0h0v0h0v0h0v0h0v0h0v0h0v0h0v0h0v0h0v0h0v0h0l0,0h0v0h0v0h0v-.009h0v0h0v0h0v0h0v0h0v0h0l0,0h0l0,0h0v0h0v0h0v0h0v0h0v0h0v0h0v0h0v0h0v-.005l0,0h0l0,0h0v0h0v0h0v-.009h0v0h0v0h0v0h0v0h0l0,0h0l0,0h0l0,0h0v0h0v0h0v0h0v0h0v0h0v0h0v0h0l0,0h0l0,0h0l0,0h0v0h0v0h0v0h0v0h0v0h0v0h0v0h0v0h0l0,0h0l0,0h0l0,0h0v0h0v0h0l0,0h0v0h0v0h0v0h0v0h0l0,0h0l0,0h0l0,0h0l0,0h0v0h0l0,0h0l0,0h0v0h0v0h0v0h0v0h0l0,0h0l0,0h0l0,0h0l0,0h0v0h0l0,0h0l0,0h0v0h0v0h0v0h0l0,0h0l0,0h0l0,0h0l0,0h0l0,0h0l0,0h0l0,0h0l0,0h0v0h0v0h0l0,0h0l0,0h0l0,0h0l0,0h0l0,0h0l0,0h0l0,0h0l0,0h0l0,0h0v0h0v0h0l0,0h0l0,0h0l0,0h0l0,0h0l0,0h0l0,0h0l0,0h0l0,0h0v0h0v0h0l0,0h0l0,0h0l0,0h0l0,0h0l0,0h0l0,0h0l0,0h0l0,0h0l0,0h0v0h0v0h0l0,0h0l0,0h0l0,0h0l0,0h0l0,0h0l0,0h0l0,0h0l0,0h0l0,0h0v0h0l0,0h0l0,0h0l0,0h0l0,0h0l0,0h0l0,0h0l0,0h0l0,0h0l0,0h0l0,0h0v0h0l0,0h0l0,0h0l0,0h0l0,0h0l0,0h0l0,0h0l0,0h0l0,0h0l0,0h0l0,0h0l0,0h0l0,0h0l0,0h0l0,0h0l0,0h0l0,0h0l0,0h0l0,0h0l0,0h0l0,0h0l0,0h0l0,0h0l0,0h0l0,0h0l0,0h0l0,0h0l0,0h0l0,0h0l0,0h0l0,0h0l0,0h0l0,0v0l0,0h0l0,0h0l0,0h0l0,0h0l0,0v0l0,0h0l0,0h0l0,0h0l0,0h0l0,0h0l0,0h0l0,0h0l0,0h0l0,0h0l0,0h0l0,0h0l0,0h0l0,0h0l0,0h0l0,0h0l0,0h0l0,0v0l0,0h0l0,0h0l0,0h0l0,0h0l0,0h0l0,0h0l0,0h0l0,0h0l0,0h0l0,0h0l0,0h0l0,0h0l0,0h0l0,0h0l0,0h0l0,0h0l0,0h0l0,0h0l0,0h0l0,0h0l0,0h0l0,0h0l0,0h0l0,0h0l0,0h0l0,0h0l0,0h0l0,0h0l0,0h0l0,0v0l0,0h0l0,0h0l0,0h0l0,0h0l0,0v0l0,0h0l0,0h0l0,0h0l0,0h0l0,0h0l0,0h0l0,0h0l0,0h0l0,0h0l0,0h0l0,0h0l0,0h0l0,0h0l0,0h0l0,0h0l0,0h0l0,0h0l0,0h0l0,0h0l0,0h0l0,0h0l0,0h0l0,0h0l0,0h0l0,0h0l0,0h0l0,0h0l0,0h0l0,0h0l0,0h0l0,0h0l0,0h0l0,0h0l0,0h0l0,0h0l0,0h0l0,0h0l0,0h0l0,0h0l0,0h0l0,0h0l0,0h0l0,0h0l0,0h0l0,0h0l0,0h0l0,0h0l0,0h0l0,0h0l0,0h0l0,0h0l0,0h0l0,0h0l0,0h0l0,0h0l0,0h0l0,0h0l0,0h0l0,0h0l0,0h0l0,0h0l0,0h0l0,0h0l0,0h0l0,0h0l0,0h0l0,0h0l0,0h0l0,0h0l0,0h0l0,0h0l0,0h0l0,0h0l0,0h0l0,0h0l0,0h0l0,0h0l0,0h0l0,0h0l0,0h0l0,0h0l0,0h0l0,0h0l0,0h0l0,0h0l0,0h0l0,0h0l0,0h0l0,0h0l0,0h0l0,0h0l0,0h0l0,0h0l0,0h0l0,0h0l0,0h0l0,0h0l0,0h0l0,0h0l0,0h0l0,0h0l0,0h0l0,0h0l0,0h0l0,0h0l0,0h0l0,0h0l0,0h0l0,0h0l0,0h0l0,0h0l0,0h0l0,0h0l0,0h0l0,0h0l0,0h0l0,0h0l0,0h0l0,0h0l0,0h0l0,0h0l0,0v0l0,0h0l0,0h0l0,0h0l0,0h0l0,0h0l0,0h0l0,0h0l0,0h0l0,0h0l0,0h0l0,0h0l0,0h0l0,0h0l0,0h0l0,0h0l0,0h0l0,0h0l0,0h0l0,0h0l0,0h0l0,0h0l0,0h0l0,0h0l0,0h0l0,0h0l0,0h0l0,0h0l0,0h0l0,0h0l0,0v0l0,0h0l0,0h0l0,0h0l0,0h0l0,0h0l0,0h0l0,0h0l0,0h0l0,0h0l0,0h0l0,0h0l0,0h0l0,0h0l0,0h0l0,0h0l0,0h0l0,0v0l0,0h0l0,0h0l0,0h0l0,0h0l0,0v0l0,0h0l0,0h0l0,0h0l0,0h0l0,0h0l0,0h0l0,0h0l0,0h0l0,0v0l0,0h0l0,0h0l0,0h0l0,0h0l0,0h0l0,0h0l0,0h0l0,0h0l0,0h0l0,0h0l0,0h0l0,0h0l0,0h0l0,0h0l0,0h0l0,0h0l0,0h0l0,0h0l0,0h0l0,0h0l0,0v0l0,0h0l0,0h0l0,0h0l0,0h0l0,0h0l0,0h0l0,0h0l0,0h0l0,0v0l0,0h0l0,0h0l0,0h0l0,0h0l0,0h0l0,0h0l0,0h0l0,0h0l0,0h0l0,0h0l0,0h0l0,0h0l0,0h0l0,0h0l0,0h0l0,0h0l0,0h0l0,0h0l0,0h0v0h0l0,0h0l0,0h0l0,0h0l0,0h0l0,0h0l0,0h0l0,0h0l0,0h0l0,0h0l0,0h0v0h0l0,0h0l0,0h0l0,0h0l0,0h0l0,0h0l0,0h0l0,0h0l0,0h0l0,0h0v0h0v0h0l0,0h0l0,0h0l0,0h0l0,0h0l0,0h0l0,0h0l0,0h0l0,0h0l0,0h0v0h0l0,0h0l0,0h0l0,0h0l0,0h0l0,0h0l0,0h0l0,0h0l0,0h0l0,0h0v0h0v0h0l0,0h0l0,0h0l0,0h0l0,0h0l0,0h0l0,0h0l0,0h0l0,0h0l0,0h0v0h0v0h0l0,0h0l0,0h0l0,0h0l0,0h0l0,0h0l0,0h0l0,0h0l0,0h0v0h0v0h0v0h0l0,0h0l0,0h0v0h0l0,0h0l0,0h0l0,0h0l0,0h0v0h0v0h0v0h0v0h0l0,0h0l0,0h0v0h0l0,0h0l0,0h0l0,0h0l0,0h0v0h0v0h0v0h0v0h0l0,0h0v-.008h0l0,0h0l0,0h0l0,0V422.1h0v0h0v0h0v0h0v0h0v0h0v0h0l0,0h0l0,0h0l0,0h0l0,0h0v0h0v0h0v0h0v0h0v0h0v0h0v0h0l0,0h0l0,0h0l0,0h0V422h0v0h0v0h0v-.009h0v0h0v0h0l0,0h0l0,0v-.005h0v0h0v0h0v0h0v0h0v0h0v0h0v0h0v0h0l0,0h0l0,0h0v0h0v0h0v0h0v0h0v0h0v0h0v0h0v0h0v0h0l0,0v-.005h0v0h0v0h0v0h0v-.009h0v0h0v0h0v-.009h0l0,0h0v0h0v0h0v0h0v0h0v0h0v0h0v0h0v0h0v0h0v0h0v0h0v0h0v0h0v0h0v0h0v0h0v0h0v0h0v0h0v-.008h0v0h0v0h0v-.008h0v0h0v0h0v0h0v0h0v0h0v0h0v0h0v0h0v0h0v0h0v0h0v0h0v0h0v0h0v0h0v0h0v0h0v0h0v0h0v0h0v0h0v0h0v0h0v0h0v0h0v0h0v0h0v0h0v0h0v0h0v0h0v0h0v0h0v0h0v0h0v0h0v0h0v0h0v0h0v0h0v0h0v0h0v0h0v0h0v0h0v0h0v0h0v0h0v0h0v0h0v0h0v0h0v0h0v0h0v0h0v0h0v0h0v0h0v0h0v0h0v0h0v0h0v0h0v0h0v0h0v0h0v0h0v0h0v0h0v0h0v0h0v0h0v0h0v0h0v0h0v0h0v0h0v0h0v0h0v0h0v0h0v0h0v0h0v0h0v0h0v0h0v0h0v0h0v0h0v0h0v0h0v0h0v0h0v0h0v0h0v0h0v0h0v0h0v0h0v0h0v0h0v0h0v0h0v0h0v0h0v0h0v0h0v0h0v0h0v0h0v0h0v0h0v0h0v0h0v0h0v0h0V421.2h0v0h0v0h0v0h0v0h0v0h0v0h0v0h0v0h0v0h0v0h0v0h0v0h0v0h0v0h0v0h0v0h0v0h0v0h0v0h0v-.009h0v0h0v0h0v0h0v0h0v0h0v0h0v0h0v-.009h0v0h0v0h0v0h0v-.009h0v0h0v0h0v0h0v0h0v0h0v0h0v0h0v0h0v0h0v0h0v0h0v0h0v0h0v0h0v0h0v-.009h0v0h0v0h0v-.009h0v0h0v0h0v0h0v0h0v0h0v0h0v0h0v-.008h0v0h0v0h0v0h0v0h0v0h0v0h0v0h0v0h0v0h0v0h0v0h0v0h0v0h0v0h0v0h0v-.008h0v0h0v0h0v0h0v0h0v0h0v0h0v0h0v0h0v0h0v0h0v0h0v0h0v0h0v0h0v0h0v0h0v0h0v0h0v0h0v0h0v0h0v0h0v0h0v0h0v0h0v0h0v0h0v0h0v0h0v0h0v0h0v0h0v0h0v0h0v0h0v0h0v0h0v0h0v0h0v0h0v0h0v0h0v0h0v0h0v0h0v0h0v0h0v0h0v0h0v0h0v0h0v0h0v0h0v0h0v0h0v0h0v0h0v0h0v0h0v0h0v0h0v0h0v0h0v0h0v0h0v0h0v0h0v0h0v0h0v0h0v0h0v0h0v0h0v0h0v0Z" transform="translate(-608.34 -399.771)" fill="#142d52"/>
    <path id="Tracé_4" data-name="Tracé 4" d="M676.975,416.144c-1.166-1.9-2.4-3.784-3.791-5.635a33.786,33.786,0,0,0-5.572-5.854,23.547,23.547,0,0,0-5.2-3.314,17.7,17.7,0,0,0-7.619-1.571,12.022,12.022,0,0,0-10.487,6.128,12.022,12.022,0,0,0-10.487-6.128,17.7,17.7,0,0,0-7.619,1.571,23.526,23.526,0,0,0-5.2,3.314,33.786,33.786,0,0,0-5.572,5.854c-1.389,1.851-2.624,3.739-3.791,5.635-.883,1.434-2.3,4.366-2.3,4.366l.847,1.506c7.428,13.211,18.505,21.523,34.211,21.417a39.542,39.542,0,0,0,21.538-6.374,31.814,31.814,0,0,0,7.624-7.452c.9-1.2,5.135-7.214,5.714-9.1C679.273,420.51,677.857,417.578,676.975,416.144Z" transform="translate(-608.465 -399.771)" fill="url(#radial-gradient)"/>
</svg>