<svg id="Groupe_162" data-name="Groupe 162" xmlns="http://www.w3.org/2000/svg" xmlns:xlink="http://www.w3.org/1999/xlink" width="34.323" height="34.398" viewBox="0 0 34.323 34.398">
    <defs>
        <radialGradient id="radial-gradient" cx="0.5" cy="0.5" r="0.439" gradientTransform="translate(-0.179) scale(1.359 1)" gradientUnits="objectBoundingBox">
            <stop offset="0.193" stop-color="#ffe8c1"/>
            <stop offset="0.341" stop-color="#ffc2a5"/>
            <stop offset="0.554" stop-color="#ff9381"/>
            <stop offset="0.742" stop-color="#ff7167"/>
            <stop offset="0.898" stop-color="#ff5c57"/>
            <stop offset="1" stop-color="#ff5552"/>
        </radialGradient>
        <radialGradient id="radial-gradient-2" cx="0.5" cy="0.5" r="0.439" xlink:href="#radial-gradient"/>
        <radialGradient id="radial-gradient-3" cx="0.5" cy="0.5" r="0.439" xlink:href="#radial-gradient"/>
    </defs>
    <g id="Groupe_25" data-name="Groupe 25" transform="translate(9.008 0)">
        <path id="Tracé_14" data-name="Tracé 14" d="M552.191,600.425c-.044-.076-.087-.152-.129-.23a14.2,14.2,0,0,1-1.5-4.252l-1.333-7.19-1.333,7.19a14.2,14.2,0,0,1-1.5,4.252c-.043.078-.086.154-.129.23a10.668,10.668,0,0,1-6.877,5.041l-2.758.634,2.758.634a10.669,10.669,0,0,1,6.877,5.041q.065.113.129.23a14.375,14.375,0,0,1,1.5,4.214l1.332,6.933,1.331-6.933a14.367,14.367,0,0,1,1.5-4.214q.064-.116.129-.23a10.63,10.63,0,0,1,6.916-5.038l2.848-.637-2.848-.637A10.631,10.631,0,0,1,552.191,600.425Z" transform="translate(-536.64 -588.753)" fill="url(#radial-gradient)"/>
    </g>
    <g id="Groupe_26" data-name="Groupe 26" transform="translate(0 0.016)">
        <path id="Tracé_15" data-name="Tracé 15" d="M519.355,594.615l-.064-.115a7.08,7.08,0,0,1-.746-2.119l-.665-3.584-.664,3.584a7.063,7.063,0,0,1-.746,2.119c-.021.039-.042.077-.064.115a5.316,5.316,0,0,1-3.427,2.513l-1.375.316,1.375.316a5.317,5.317,0,0,1,3.427,2.513c.022.037.043.076.064.114a7.15,7.15,0,0,1,.746,2.1l.664,3.455.664-3.456a7.167,7.167,0,0,1,.746-2.1l.064-.114a5.3,5.3,0,0,1,3.448-2.511l1.42-.317-1.42-.317A5.3,5.3,0,0,1,519.355,594.615Z" transform="translate(-511.604 -588.798)" fill="url(#radial-gradient-2)"/>
    </g>
    <g id="Groupe_27" data-name="Groupe 27" transform="translate(5.666 20.785)">
        <path id="Tracé_16" data-name="Tracé 16" d="M533.041,650.791l-.047-.084a5.2,5.2,0,0,1-.547-1.556l-.487-2.63-.488,2.63a5.2,5.2,0,0,1-.547,1.556l-.047.084a3.9,3.9,0,0,1-2.516,1.844l-1.009.232,1.009.232a3.9,3.9,0,0,1,2.516,1.844l.047.084a5.255,5.255,0,0,1,.548,1.542l.488,2.537.487-2.537a5.254,5.254,0,0,1,.548-1.542l.047-.084a3.89,3.89,0,0,1,2.531-1.844l1.042-.233-1.042-.233A3.89,3.89,0,0,1,533.041,650.791Z" transform="translate(-527.351 -646.521)" fill="url(#radial-gradient-3)"/>
    </g>
</svg>