<svg id="Groupe_220" data-name="Groupe 220" xmlns="http://www.w3.org/2000/svg" width="50.064" height="98.396" viewBox="0 0 50.064 98.396">
  <path id="Tracé_10" data-name="Tracé 10" d="M297.909,35.95c-1.353-1.457-3.076-2.5-4.478-3.912a12.869,12.869,0,0,0-9.377-3.662c-2.061-.035-4.158.429-6.187-.3H272.8a20.862,20.862,0,0,0-4.09,1.483,35.221,35.221,0,0,0-12.276,12.465,20.047,20.047,0,0,0,1.283,23.021A25.917,25.917,0,0,0,270.9,73.843c1.162.347,2.834.367,2.607,2.121-.239,1.856.44,4.555-2.088,5.115-4.941,1.1-9.257,4.161-14.49,4.3a5.261,5.261,0,0,0-5.043,3.2V91.1c1.086.841,1.953,2.371,3.584,1.852,2.856-.909,5.965-.239,8.759-1.7a42.146,42.146,0,0,1,6.589-2.475c.9-.291,2.253-.819,1.815,1.205-.916,4.223-.326,8.515-.515,12.773a1.92,1.92,0,0,1-.494,1.608c-2.548,2.61-4.805,5.51-7.431,8.033-2.516,2.417-4.285,5.522-7.572,7.276-2.583,1.379-3.315,3.886-1.927,5.516,1.739,2.043,3.686,1.365,5.813-.047,4.8-3.193,7.665-8.237,11.948-11.936,1.578-1.361,2.586-1.469,4.006-.543,4.632,3.022,9.529,5.65,13.254,9.941,1.387,1.6,3.664,3.079,5.713.988,1.906-1.947.884-3.862-.926-5.59a75.422,75.422,0,0,0-14.249-10.487,3.069,3.069,0,0,1-1.78-3.138c.053-5.852-.152-11.711.965-17.686a118.251,118.251,0,0,1,14.385,7.462c1.163.752,2.416,1.548,3.882.721,2.568-1.448,2.3-4.323-.493-6.228-4.434-3.025-9.485-4.846-14.2-7.313-1.114-.582-3.278-.7-2.531-2.723.759-2.059-.067-5.341,3.411-5.636a12.71,12.71,0,0,0,6.353-2.843c7.021-5.044,11.758-11.4,11.107-20.6-.06-.836-.508-1.916.6-2.544V43.834A14.222,14.222,0,0,0,297.909,35.95Zm-2.932,12.268c0,9.294-4.877,16.217-12.6,18.542-7.629,2.3-17.416-1.6-20.717-8.713-2.308-4.972-.982-9.936,2.117-14.192,1.929-2.645,3.914-5.438,6.966-7.047,1.367-.72,2.534-2.682,4.485-.65.549.571,1.728-.118,2.639-.425,4.521-1.526,8.657-1.063,12.009,2.705a10.82,10.82,0,0,0,1.341,1.333C294.2,42.111,296.164,44.845,294.977,48.218Z" transform="translate(-251.884 -28.079)" fill="#FFEAC3"/>
  <path id="Tracé_11" data-name="Tracé 11" d="M276.08,49.448c2.583-.056,4.161.432,4.3,2.79.13,2.253-.789,3.482-3.215,3.591-1.636.073-3.253.517-4.884.747-1.92.273-3.5-.374-3.957-2.31a3.175,3.175,0,0,1,2.84-4.072A33.393,33.393,0,0,0,276.08,49.448Z" transform="translate(-247.988 -22.979)" fill="#FFEAC3"/>
  <path id="Tracé_12" data-name="Tracé 12" d="M266.717,44.706a2.89,2.89,0,0,1,3.156-3.265A3.252,3.252,0,0,1,273.027,45a2.9,2.9,0,0,1-3.077,3.151A3,3,0,0,1,266.717,44.706Z" transform="translate(-248.346 -24.89)" fill="#FFEAC3"/>
  <path id="Tracé_13" data-name="Tracé 13" d="M280.924,47.644c-1.989-.133-2.975-1.058-2.977-3.159a2.82,2.82,0,0,1,3.029-3.145,3.039,3.039,0,0,1,3.264,3.05C284.367,46.407,282.966,47.473,280.924,47.644Z" transform="translate(-245.663 -24.914)" fill="#FFEAC3"/>
</svg>
