<svg xmlns="http://www.w3.org/2000/svg" width="40.077" height="25.023" viewBox="0 0 40.077 25.023">
    <path id="Tracé_9" data-name="Tracé 9" d="M687.411,385.208c-.669-1.087-1.377-2.169-2.173-3.229a19.338,19.338,0,0,0-3.192-3.355,13.5,13.5,0,0,0-2.981-1.9,10.133,10.133,0,0,0-4.365-.9,6.891,6.891,0,0,0-6.01,3.512,6.891,6.891,0,0,0-6.01-3.512,10.133,10.133,0,0,0-4.365.9,13.507,13.507,0,0,0-2.981,1.9,19.342,19.342,0,0,0-3.192,3.355c-.8,1.059-1.5,2.142-2.173,3.229-.5.822-1.316,2.5-1.316,2.5l.484.863c4.258,7.57,10.606,12.334,19.606,12.273a22.673,22.673,0,0,0,12.344-3.652,18.271,18.271,0,0,0,4.369-4.271,34.691,34.691,0,0,0,3.273-5.214S687.915,386.03,687.411,385.208Z" transform="translate(-648.65 -375.825)" fill="#ff5552" opacity="0.7"/>
</svg>