<svg xmlns="http://www.w3.org/2000/svg" width="185.034" height="54.71" viewBox="0 0 185.034 54.71">
    <g id="Groupe_43" data-name="Groupe 43" transform="translate(158.723 0)">
        <g id="Groupe_7" data-name="Groupe 7" transform="translate(0 0)">
            <path id="Tracé_10" data-name="Tracé 10" d="M276.072,32.215c-.711-.766-1.616-1.314-2.353-2.056a6.763,6.763,0,0,0-4.928-1.924,9.783,9.783,0,0,1-3.252-.156h-2.664a10.964,10.964,0,0,0-2.15.779,18.51,18.51,0,0,0-6.451,6.551,10.536,10.536,0,0,0,.674,12.1,13.62,13.62,0,0,0,6.928,4.622c.611.182,1.489.193,1.37,1.114-.126.975.231,2.394-1.1,2.688-2.6.576-4.865,2.187-7.615,2.259a2.765,2.765,0,0,0-2.65,1.683V61.2c.571.442,1.027,1.246,1.883.973,1.5-.478,3.135-.126,4.6-.893a22.15,22.15,0,0,1,3.463-1.3c.471-.153,1.184-.43.954.633-.481,2.219-.171,4.475-.271,6.713a1.009,1.009,0,0,1-.26.845c-1.339,1.372-2.525,2.9-3.905,4.222-1.322,1.27-2.252,2.9-3.979,3.824-1.357.725-1.742,2.042-1.013,2.9.914,1.073,1.937.717,3.055-.025,2.525-1.678,4.028-4.329,6.279-6.273.829-.715,1.359-.772,2.105-.285,2.434,1.588,5.008,2.969,6.965,5.224.729.84,1.926,1.618,3,.519,1-1.023.465-2.03-.487-2.938a39.637,39.637,0,0,0-7.488-5.511,1.613,1.613,0,0,1-.935-1.649,52.157,52.157,0,0,1,.507-9.295,62.143,62.143,0,0,1,7.56,3.921c.611.4,1.269.814,2.04.379,1.35-.761,1.21-2.272-.259-3.273-2.33-1.59-4.984-2.547-7.463-3.843-.585-.306-1.722-.366-1.33-1.431.4-1.082-.035-2.807,1.793-2.962a6.679,6.679,0,0,0,3.339-1.494c3.69-2.651,6.179-5.99,5.837-10.827-.031-.439-.267-1.007.316-1.337V36.359A7.474,7.474,0,0,0,276.072,32.215Zm-1.541,6.447c0,4.884-2.563,8.523-6.619,9.744-4.009,1.209-9.153-.84-10.888-4.579-1.213-2.613-.516-5.221,1.113-7.458a11.415,11.415,0,0,1,3.661-3.7c.718-.378,1.332-1.409,2.357-.342.288.3.908-.062,1.387-.223,2.376-.8,4.55-.559,6.311,1.422a5.685,5.685,0,0,0,.7.7C274.121,35.453,275.154,36.89,274.531,38.663Z" transform="translate(-251.884 -28.079)" fill="#142d52"/>
            <path id="Tracé_11" data-name="Tracé 11" d="M272.344,49.446c1.357-.029,2.187.227,2.258,1.466a1.549,1.549,0,0,1-1.689,1.887c-.86.038-1.709.271-2.567.393a1.651,1.651,0,0,1-2.08-1.214,1.669,1.669,0,0,1,1.493-2.14A17.548,17.548,0,0,0,272.344,49.446Z" transform="translate(-257.581 -35.536)" fill="#142d52"/>
            <path id="Tracé_12" data-name="Tracé 12" d="M266.711,43.157a1.519,1.519,0,0,1,1.659-1.716,1.709,1.709,0,0,1,1.657,1.87,1.525,1.525,0,0,1-1.617,1.656A1.577,1.577,0,0,1,266.711,43.157Z" transform="translate(-257.057 -32.742)" fill="#142d52"/>
            <path id="Tracé_13" data-name="Tracé 13" d="M279.512,44.652a1.455,1.455,0,0,1-1.564-1.66,1.482,1.482,0,0,1,1.592-1.653,1.6,1.6,0,0,1,1.715,1.6C281.321,44,280.585,44.562,279.512,44.652Z" transform="translate(-260.981 -32.706)" fill="#142d52"/>
        </g>
    </g>
    <g id="Groupe_21" data-name="Groupe 21" transform="translate(-61.443 -49.397)">
        <text id="KISS_KISS_CHAT_CHAT" data-name="KISS KISS
CHAT CHAT" transform="translate(62.443 75.107)" fill="#142d52" font-size="26" font-family="BLACKBUBBLE, BLACK BUBBLE"><tspan x="0" y="0">KISS KISS </tspan><tspan x="0" y="24">CHAT CHAT</tspan></text>
    </g>
</svg>